<svg width="24" height="24" viewBox="0 0 24 24" fill="none" xmlns="http://www.w3.org/2000/svg">
<path d="M19.0039 4.00098H17.0039V3.00098C17.0039 2.73576 16.8986 2.48141 16.711 2.29387C16.5235 2.10633 16.2691 2.00098 16.0039 2.00098C15.7387 2.00098 15.4843 2.10633 15.2968 2.29387C15.1093 2.48141 15.0039 2.73576 15.0039 3.00098V4.00098H9.00391V3.00098C9.00391 2.73576 8.89855 2.48141 8.71101 2.29387C8.52348 2.10633 8.26912 2.00098 8.00391 2.00098C7.73869 2.00098 7.48434 2.10633 7.2968 2.29387C7.10926 2.48141 7.00391 2.73576 7.00391 3.00098V4.00098H5.00391C4.20826 4.00098 3.4452 4.31705 2.88259 4.87966C2.31998 5.44227 2.00391 6.20533 2.00391 7.00098V19.001C2.00391 19.7966 2.31998 20.5597 2.88259 21.1223C3.4452 21.6849 4.20826 22.001 5.00391 22.001H19.0039C19.7996 22.001 20.5626 21.6849 21.1252 21.1223C21.6878 20.5597 22.0039 19.7966 22.0039 19.001V7.00098C22.0039 6.20533 21.6878 5.44227 21.1252 4.87966C20.5626 4.31705 19.7996 4.00098 19.0039 4.00098V4.00098ZM20.0039 19.001C20.0039 19.2662 19.8986 19.5205 19.711 19.7081C19.5235 19.8956 19.2691 20.001 19.0039 20.001H5.00391C4.73869 20.001 4.48434 19.8956 4.2968 19.7081C4.10926 19.5205 4.00391 19.2662 4.00391 19.001V12.001H20.0039V19.001ZM20.0039 10.001H4.00391V7.00098C4.00391 6.73576 4.10926 6.48141 4.2968 6.29387C4.48434 6.10633 4.73869 6.00098 5.00391 6.00098H7.00391V7.00098C7.00391 7.26619 7.10926 7.52055 7.2968 7.70808C7.48434 7.89562 7.73869 8.00098 8.00391 8.00098C8.26912 8.00098 8.52348 7.89562 8.71101 7.70808C8.89855 7.52055 9.00391 7.26619 9.00391 7.00098V6.00098H15.0039V7.00098C15.0039 7.26619 15.1093 7.52055 15.2968 7.70808C15.4843 7.89562 15.7387 8.00098 16.0039 8.00098C16.2691 8.00098 16.5235 7.89562 16.711 7.70808C16.8986 7.52055 17.0039 7.26619 17.0039 7.00098V6.00098H19.0039C19.2691 6.00098 19.5235 6.10633 19.711 6.29387C19.8986 6.48141 20.0039 6.73576 20.0039 7.00098V10.001Z" fill="white"/>
</svg>
