<svg width="24" height="24" viewBox="0 0 24 24" fill="none" xmlns="http://www.w3.org/2000/svg">
<circle cx="12" cy="12" r="12" fill="#2471B5"/>
<path d="M15.8042 12.1942C15.7424 12.1322 15.6689 12.083 15.588 12.0495C15.5072 12.016 15.4205 11.9987 15.3329 11.9987C15.2453 11.9987 15.1587 12.016 15.0778 12.0495C14.9969 12.083 14.9234 12.1322 14.8616 12.1942L13.7989 13.2568C13.3062 13.1102 12.3869 12.7768 11.8042 12.1942C11.2216 11.6115 10.8882 10.6922 10.7416 10.1995L11.8042 9.13683C11.8662 9.07497 11.9154 9.0015 11.9489 8.92063C11.9824 8.83975 11.9997 8.75305 11.9997 8.6655C11.9997 8.57794 11.9824 8.49125 11.9489 8.41037C11.9154 8.32949 11.8662 8.25602 11.8042 8.19417L9.13757 5.5275C9.07571 5.46553 9.00224 5.41638 8.92137 5.38284C8.84049 5.3493 8.75379 5.33203 8.66624 5.33203C8.57868 5.33203 8.49199 5.3493 8.41111 5.38284C8.33023 5.41638 8.25676 5.46553 8.1949 5.5275L6.3869 7.3355C6.13357 7.58883 5.9909 7.93683 5.99624 8.29217C6.01157 9.2415 6.2629 12.5388 8.86157 15.1375C11.4602 17.7362 14.7576 17.9868 15.7076 18.0028H15.7262C16.0782 18.0028 16.4109 17.8642 16.6629 17.6122L18.4709 15.8042C18.5329 15.7423 18.582 15.6688 18.6156 15.588C18.6491 15.5071 18.6664 15.4204 18.6664 15.3328C18.6664 15.2453 18.6491 15.1586 18.6156 15.0777C18.582 14.9968 18.5329 14.9234 18.4709 14.8615L15.8042 12.1942ZM15.7196 16.6688C14.8876 16.6548 12.0409 16.4315 9.80424 14.1942C7.56024 11.9502 7.3429 9.0935 7.32957 8.27817L8.66624 6.9415L10.3902 8.6655L9.52824 9.5275C9.44988 9.6058 9.39227 9.70239 9.36061 9.80854C9.32895 9.9147 9.32424 10.0271 9.3469 10.1355C9.3629 10.2122 9.75424 12.0302 10.8609 13.1368C11.9676 14.2435 13.7856 14.6348 13.8622 14.6508C13.9706 14.6741 14.0831 14.6698 14.1893 14.6382C14.2956 14.6067 14.3922 14.5489 14.4702 14.4702L15.3329 13.6082L17.0569 15.3322L15.7196 16.6688Z" fill="white"/>
</svg>
