<svg width="24" height="24" viewBox="0 0 24 24" fill="none" xmlns="http://www.w3.org/2000/svg">
<path fill-rule="evenodd" clip-rule="evenodd" d="M1.40393 12.0009C1.40393 6.14666 6.14971 1.40088 12.0039 1.40088C17.8582 1.40088 22.6039 6.14666 22.6039 12.0009C22.6039 17.8551 17.8582 22.6009 12.0039 22.6009C6.14971 22.6009 1.40393 17.8551 1.40393 12.0009ZM12.0039 2.60088C6.81245 2.60088 2.60393 6.8094 2.60393 12.0009C2.60393 17.1923 6.81245 21.4009 12.0039 21.4009C17.1954 21.4009 21.4039 17.1923 21.4039 12.0009C21.4039 6.8094 17.1954 2.60088 12.0039 2.60088Z" fill="white"/>
<path fill-rule="evenodd" clip-rule="evenodd" d="M12 5.3999C12.3314 5.3999 12.6 5.66853 12.6 5.9999V12.1718C12.6 12.1718 12.6 12.1718 12.6 12.1718C12.6001 12.543 12.7477 12.8991 13.0102 13.1616L15.4243 15.5756C15.6586 15.81 15.6586 16.1899 15.4243 16.4242C15.19 16.6585 14.8101 16.6585 14.5758 16.4242L12.1618 14.0102C12.1618 14.0102 12.1618 14.0102 12.1618 14.0102C11.6742 13.5227 11.4002 12.8615 11.4 12.172V5.9999C11.4 5.66853 11.6687 5.3999 12 5.3999Z" fill="white"/>
</svg>
