<svg width="277" height="212" viewBox="0 0 277 212" fill="none" xmlns="http://www.w3.org/2000/svg">
<path fill-rule="evenodd" clip-rule="evenodd" d="M125.001 0L98.5227 91.8723C103.602 94.3913 108.278 97.5828 112.544 101.452C124.924 112.681 131.029 128.132 131.029 147.544C131.029 166.979 124.725 182.775 112.013 194.728L112.011 194.729C99.7106 206.272 84.1585 212 65.5143 212C46.8694 212 31.1453 206.272 18.4826 194.75L18.4591 194.729L18.4363 194.707C6.1046 182.75 0 166.959 0 147.544C0 142.244 0.37827 136.945 1.13435 131.648L1.14412 131.579L1.1586 131.512C2.29655 126.196 4.18195 119.791 6.79781 112.31C9.42142 104.808 13.3434 95.0909 18.5518 83.1751C18.5523 83.1741 18.5527 83.1731 18.5531 83.1722L54.7318 0H125.001ZM20.3857 83.9732C15.1857 95.8695 11.2857 105.535 8.68571 112.97C6.08571 120.406 4.22857 126.726 3.11429 131.93C2.37143 137.135 2 142.34 2 147.544C2 166.504 7.94286 181.746 19.8286 193.271C32.0857 204.424 47.3143 210 65.5143 210C83.7143 210 98.7571 204.424 110.643 193.271C122.9 181.746 129.029 166.504 129.029 147.544C129.029 128.584 123.086 113.714 111.2 102.933C107.171 99.2781 102.757 96.2427 97.9594 93.8269C97.3563 93.5233 96.7472 93.2294 96.1321 92.9453L122.343 2H56.0429L20.3857 83.9732ZM270.972 0L244.494 91.8723C249.574 94.3913 254.25 97.5828 258.515 101.452C270.895 112.681 277 128.132 277 147.544C277 166.979 270.696 182.775 257.984 194.728L257.983 194.729C245.682 206.272 230.13 212 211.486 212C192.841 212 177.117 206.272 164.454 194.75L164.431 194.729L164.408 194.707C152.076 182.75 145.971 166.959 145.971 147.544C145.971 142.244 146.35 136.945 147.106 131.648L147.116 131.579L147.13 131.512C148.268 126.196 150.153 119.791 152.769 112.31C155.393 104.807 159.315 95.0893 164.525 83.1722L200.703 0H270.972ZM166.357 83.9732C161.157 95.8695 157.257 105.535 154.657 112.97C152.057 120.406 150.2 126.726 149.086 131.93C148.343 137.135 147.971 142.34 147.971 147.544C147.971 166.504 153.914 181.746 165.8 193.271C178.057 204.424 193.286 210 211.486 210C229.686 210 244.729 204.424 256.614 193.271C268.871 181.746 275 166.504 275 147.544C275 128.584 269.057 113.714 257.171 102.933C253.142 99.2781 248.729 96.2427 243.931 93.8269C243.328 93.5233 242.719 93.2294 242.103 92.9453L268.314 2H202.014L166.357 83.9732Z" fill="#EEEEEE"/>
</svg>
