<svg width="134" height="103" viewBox="0 0 134 103" fill="none" xmlns="http://www.w3.org/2000/svg">
<path d="M60.267 2.27706L60.6352 1H59.3061H27.7347H27.0793L26.8178 1.60096L9.83888 40.6154C9.83877 40.6157 9.83866 40.6159 9.83855 40.6162C7.35798 46.2884 5.48973 50.9147 4.23977 54.4875C2.99374 58.049 2.09525 61.0999 1.55279 63.6324L1.54555 63.6662L1.54065 63.7005C1.18029 66.224 1 68.7485 1 71.2735C1 80.5254 3.91091 88.0542 9.79385 93.7556L9.80524 93.7667L9.81697 93.7773C15.8565 99.2701 23.3559 102 32.2449 102C41.1335 102 48.5514 99.2699 54.4188 93.7669L54.4195 93.7662C60.4838 88.0671 63.4898 80.535 63.4898 71.2735C63.4898 62.023 60.5787 54.6548 54.6717 49.2994C52.6472 47.4639 50.4288 45.9484 48.0201 44.7504L60.267 2.27706ZM129.777 2.27706L130.145 1H128.816H97.2449H96.5895L96.328 1.60096L79.3491 40.6154C76.8684 46.288 75 50.9145 73.75 54.4875C72.5039 58.049 71.6054 61.0999 71.063 63.6324L71.0557 63.6662L71.0509 63.7005C70.6905 66.224 70.5102 68.7485 70.5102 71.2735C70.5102 80.5254 73.4211 88.0542 79.3041 93.7556L79.3154 93.7667L79.3272 93.7773C85.3667 99.2701 92.8661 102 101.755 102C110.644 102 118.062 99.2699 123.929 93.7669L123.93 93.7662C129.994 88.0671 133 80.535 133 71.2735C133 62.023 130.089 54.6548 124.182 49.2994C122.157 47.4639 119.939 45.9484 117.53 44.7504L129.777 2.27706Z" stroke="#1E65A3" stroke-width="2"/>
</svg>
