<svg width="100" height="80" viewBox="0 0 100 80" fill="none" xmlns="http://www.w3.org/2000/svg">
<path opacity="0.5" d="M44.0816 0L28.7755 55.7641L23.2653 32.6005C30.068 32.6005 35.6463 34.6738 40 38.8204C44.3537 42.9669 46.5306 48.6863 46.5306 55.9785C46.5306 63.2708 44.2857 69.1332 39.7959 73.5657C35.4422 77.8552 29.932 80 23.2653 80C16.5986 80 11.0204 77.8552 6.53061 73.5657C2.17687 69.1332 0 63.2708 0 55.9785C0 53.9768 0.136054 51.975 0.408163 49.9732C0.816327 47.9714 1.4966 45.5407 2.44898 42.681C3.40136 39.8213 4.82993 36.1037 6.73469 31.5282L19.7959 0H44.0816ZM97.551 0L82.2449 55.7641L76.7347 32.6005C83.5374 32.6005 89.1156 34.6738 93.4694 38.8204C97.8231 42.9669 100 48.6863 100 55.9785C100 63.2708 97.7551 69.1332 93.2653 73.5657C88.9116 77.8552 83.4014 80 76.7347 80C70.068 80 64.4898 77.8552 60 73.5657C55.6463 69.1332 53.4694 63.2708 53.4694 55.9785C53.4694 53.9768 53.6054 51.975 53.8776 49.9732C54.2857 47.9714 54.966 45.5407 55.9184 42.681C56.8708 39.8213 58.2993 36.1037 60.2041 31.5282L73.2653 0H97.551Z" fill="#D7ECFF"/>
</svg>
