<svg width="290" height="916" viewBox="0 0 290 916" fill="none" xmlns="http://www.w3.org/2000/svg">
<g clip-path="url(#clip0_3448_13002)">
<g opacity="0.8">
<path d="M314.674 502.076L94.1667 526.955L0.340676 714.557L220.848 689.679L314.674 502.076Z" fill="#369EFB"/>
<path d="M127.025 877.269L347.532 852.391L220.851 689.667L0.34375 714.545L127.025 877.269Z" fill="#1A578D"/>
<path d="M441.356 664.789L314.674 502.065L220.848 689.667L347.53 852.391L441.356 664.789Z" fill="#2471B5"/>
</g>
<path d="M395.166 261.674L259.395 215.278L145.392 298.185L281.163 344.581L395.166 261.674Z" fill="#5EB1FC"/>
<path d="M167.166 427.488L302.937 473.885L281.17 344.582L145.398 298.185L167.166 427.488Z" fill="#4879A4"/>
<path d="M416.936 390.978L395.169 261.675L281.165 344.582L302.933 473.885L416.936 390.978Z" fill="#508DC4"/>
<path d="M273.336 106.52L339.935 145.358L410.508 113.185L343.909 74.3466L273.336 106.52Z" fill="#508DC4"/>
<path d="M277.315 35.5058L273.341 106.517L343.915 74.3441L347.888 3.33274L277.315 35.5058Z" fill="#4879A4"/>
<g opacity="0.8">
<path d="M208.296 206.603L215.82 101.767L136.858 39.6052L129.333 144.441L208.296 206.603Z" fill="#369EFB"/>
<path d="M50.372 82.2799L42.8472 187.116L129.335 144.442L136.859 39.6062L50.372 82.2799Z" fill="#1A578D"/>
<path d="M121.81 249.279L208.297 206.605L129.334 144.443L42.8471 187.117L121.81 249.279Z" fill="#2471B5"/>
</g>
</g>
<defs>
<clipPath id="clip0_3448_13002">
<rect width="290" height="916" fill="white"/>
</clipPath>
</defs>
</svg>
