<svg width="441" height="480" viewBox="0 0 441 480" fill="none" xmlns="http://www.w3.org/2000/svg">
<g opacity="0.2" filter="url(#filter0_d_2369_11932)">
<path d="M5.58292 270.333L74.4526 232.57L143.322 270.333L74.4526 308.096L5.58292 270.333Z" fill="#FF960F" stroke="white"/>
<path d="M5.04297 346.704V271.178L73.9526 308.963V384.489L5.04297 346.704Z" fill="#C67105" stroke="white"/>
<path d="M143.863 346.704L74.9531 384.489V308.963L143.863 271.178V346.704Z" fill="#F48E0C" stroke="white"/>
<path d="M285.224 270.333L354.093 232.57L422.963 270.333L354.093 308.096L285.224 270.333Z" fill="#FF960F" stroke="white"/>
<path d="M284.684 346.704V271.178L353.593 308.963V384.489L284.684 346.704Z" fill="#C67105" stroke="white"/>
<path d="M423.503 346.704L354.594 384.489V308.963L423.503 271.178V346.704Z" fill="#F48E0C" stroke="white"/>
<path d="M215.313 308.666L284.183 270.903L353.053 308.666L284.183 346.429L215.313 308.666Z" fill="#FF960F" stroke="white"/>
<path d="M214.773 385.037V309.511L283.683 347.296V422.822L214.773 385.037Z" fill="#C67105" stroke="white"/>
<path d="M353.593 385.037L284.684 422.822V347.296L353.593 309.511V385.037Z" fill="#F48E0C" stroke="white"/>
<path d="M145.399 40.3333L214.269 2.57023L283.139 40.3333L214.269 78.0964L145.399 40.3333Z" fill="#FF960F" stroke="white"/>
<path d="M144.859 116.704V41.1778L213.769 78.9628V154.489L144.859 116.704Z" fill="#C67105" stroke="white"/>
<path d="M283.679 116.704L214.77 154.489V78.9629L283.679 41.1779V116.704Z" fill="#F48E0C" stroke="white"/>
<path d="M215.313 78.6663L284.183 40.9032L353.053 78.6663L284.183 116.429L215.313 78.6663Z" fill="#FF960F" stroke="white"/>
<path d="M214.773 155.037V79.5108L283.683 117.296V192.822L214.773 155.037Z" fill="#C67105" stroke="white"/>
<path d="M353.593 155.037L284.684 192.822V117.296L353.593 79.5109V155.037Z" fill="#F48E0C" stroke="white"/>
<path d="M285.224 193.666L354.093 155.903L422.963 193.666L354.093 231.429L285.224 193.666Z" fill="#FF960F" stroke="white"/>
<path d="M284.684 270.037V194.511L353.593 232.296V307.822L284.684 270.037Z" fill="#C67105" stroke="white"/>
<path d="M423.503 270.037L354.594 307.822V232.296L423.503 194.511V270.037Z" fill="#F48E0C" stroke="white"/>
<path d="M5.58292 193.666L74.4526 155.903L143.322 193.666L74.4526 231.43L5.58292 193.666Z" fill="#FF960F" stroke="white"/>
<path d="M5.04297 270.037V194.511L73.9526 232.296V307.822L5.04297 270.037Z" fill="#C67105" stroke="white"/>
<path d="M143.863 270.037L74.9531 307.822V232.296L143.863 194.511V270.037Z" fill="#F48E0C" stroke="white"/>
<path d="M75.4931 308.666L144.363 270.903L213.232 308.666L144.363 346.429L75.4931 308.666Z" fill="#FF960F" stroke="white"/>
<path d="M74.9531 385.037V309.511L143.863 347.296V422.822L74.9531 385.037Z" fill="#C67105" stroke="white"/>
<path d="M213.773 385.037L144.863 422.822V347.296L213.773 309.511V385.037Z" fill="#F48E0C" stroke="white"/>
<path d="M75.4931 78.6663L144.363 40.9032L213.232 78.6663L144.363 116.429L75.4931 78.6663Z" fill="#FF960F" stroke="white"/>
<path d="M74.9531 155.037V79.5108L143.863 117.296V192.822L74.9531 155.037Z" fill="#C67105" stroke="white"/>
<path d="M213.773 155.037L144.863 192.822V117.296L213.773 79.5109V155.037Z" fill="#F48E0C" stroke="white"/>
<path d="M145.399 117L214.269 79.2372L283.139 117L214.269 154.763L145.399 117Z" fill="#F7F7F7" stroke="white"/>
<path d="M144.859 193.371V117.845L213.769 155.63V231.156L144.859 193.371Z" fill="#D0D0D0" stroke="white"/>
<path d="M283.679 193.371L214.77 231.156V155.63L283.679 117.845V193.371Z" fill="#EEEEEE" stroke="white"/>
<path d="M215.313 232L284.183 194.237L353.053 232L284.183 269.763L215.313 232Z" fill="#F7F7F7" stroke="white"/>
<path d="M214.773 308.371V232.845L283.683 270.63V346.156L214.773 308.371Z" fill="#D0D0D0" stroke="white"/>
<path d="M353.593 308.371L284.684 346.156V270.63L353.593 232.845V308.371Z" fill="#EEEEEE" stroke="white"/>
<path d="M75.4931 232L144.363 194.237L213.232 232L144.363 269.763L75.4931 232Z" fill="#F7F7F7" stroke="white"/>
<path d="M74.9531 308.371V232.845L143.863 270.63V346.156L74.9531 308.371Z" fill="#D0D0D0" stroke="white"/>
<path d="M213.773 308.371L144.863 346.156V270.63L213.773 232.845V308.371Z" fill="#EEEEEE" stroke="white"/>
<path d="M285.224 117L354.093 79.2372L422.963 117L354.093 154.763L285.224 117Z" fill="#267CC7" stroke="white"/>
<path d="M284.684 193.371V117.845L353.593 155.63V231.156L284.684 193.371Z" fill="#1E5F99" stroke="white"/>
<path d="M423.503 193.371L354.594 231.156V155.63L423.503 117.845V193.371Z" fill="#2471B5" stroke="white"/>
<path d="M215.313 155.333L284.183 117.57L353.053 155.333L284.183 193.096L215.313 155.333Z" fill="#267CC7" stroke="white"/>
<path d="M214.773 231.704V156.178L283.683 193.963V269.489L214.773 231.704Z" fill="#1E5F99" stroke="white"/>
<path d="M353.593 231.704L284.684 269.489V193.963L353.593 156.178V231.704Z" fill="#2471B5" stroke="white"/>
<path d="M5.58292 117L74.4526 79.2371L143.322 117L74.4526 154.763L5.58292 117Z" fill="#267CC7" stroke="white"/>
<path d="M5.04297 193.371V117.845L73.9526 155.63V231.156L5.04297 193.371Z" fill="#1E5F99" stroke="white"/>
<path d="M143.863 193.371L74.9531 231.156V155.63L143.863 117.845V193.371Z" fill="#2471B5" stroke="white"/>
<path d="M75.4931 155.333L144.363 117.57L213.232 155.333L144.363 193.096L75.4931 155.333Z" fill="#267CC7" stroke="white"/>
<path d="M74.9531 231.704V156.178L143.863 193.963V269.489L74.9531 231.704Z" fill="#1E5F99" stroke="white"/>
<path d="M213.773 231.704L144.863 269.489V193.963L213.773 156.178V231.704Z" fill="#2471B5" stroke="white"/>
<path d="M145.399 347L214.269 309.237L283.139 347L214.269 384.763L145.399 347Z" fill="#267CC7" stroke="white"/>
<path d="M144.859 423.371V347.845L213.769 385.63V461.156L144.859 423.371Z" fill="#1E5F99" stroke="white"/>
<path d="M283.679 423.371L214.77 461.156V385.63L283.679 347.845V423.371Z" fill="#2471B5" stroke="white"/>
<path d="M145.399 270.333L214.269 232.57L283.139 270.333L214.269 308.096L145.399 270.333Z" fill="#267CC7" stroke="white"/>
<path d="M144.859 346.704V271.178L213.769 308.963V384.489L144.859 346.704Z" fill="#1E5F99" stroke="white"/>
<path d="M283.679 346.704L214.77 384.489V308.963L283.679 271.178V346.704Z" fill="#2471B5" stroke="white"/>
<path d="M145.399 193.666L214.269 155.903L283.139 193.666L214.269 231.429L145.399 193.666Z" fill="#267CC7" stroke="white"/>
<path d="M144.859 270.037V194.511L213.769 232.296V307.822L144.859 270.037Z" fill="#1E5F99" stroke="white"/>
<path d="M283.679 270.037L214.77 307.822V232.296L283.679 194.511V270.037Z" fill="#2471B5" stroke="white"/>
</g>
<defs>
<filter id="filter0_d_2369_11932" x="0.542969" y="0" width="439.461" height="480" filterUnits="userSpaceOnUse" color-interpolation-filters="sRGB">
<feFlood flood-opacity="0" result="BackgroundImageFix"/>
<feColorMatrix in="SourceAlpha" type="matrix" values="0 0 0 0 0 0 0 0 0 0 0 0 0 0 0 0 0 0 127 0" result="hardAlpha"/>
<feOffset dx="6" dy="8"/>
<feGaussianBlur stdDeviation="5"/>
<feComposite in2="hardAlpha" operator="out"/>
<feColorMatrix type="matrix" values="0 0 0 0 0 0 0 0 0 0 0 0 0 0 0 0 0 0 0.5 0"/>
<feBlend mode="normal" in2="BackgroundImageFix" result="effect1_dropShadow_2369_11932"/>
<feBlend mode="normal" in="SourceGraphic" in2="effect1_dropShadow_2369_11932" result="shape"/>
</filter>
</defs>
</svg>
