<svg width="81" height="200" viewBox="0 0 81 200" fill="none" xmlns="http://www.w3.org/2000/svg">
<g clip-path="url(#clip0_3448_12935)">
<path d="M70.5341 180.51L82.715 124.183L38.5377 86.2569L26.3568 142.584L70.5341 180.51Z" fill="#5EB1FC"/>
<path d="M-17.8171 104.656L-29.998 160.983L26.3601 142.583L38.541 86.2559L-17.8171 104.656Z" fill="#4879A4"/>
<path d="M14.1752 198.91L70.5333 180.509L26.3561 142.583L-30.0021 160.984L14.1752 198.91Z" fill="#508DC4"/>
<path d="M41.1205 53.795L29.0827 13.648L-11.373 0.170796L0.664769 40.3178L41.1205 53.795Z" fill="#5EB1FC"/>
<path d="M-39.7871 26.8433L-27.7493 66.9903L0.668648 40.3206L-11.3691 0.173584L-39.7871 26.8433Z" fill="#1A578D"/>
<path d="M12.7058 80.4662L41.1237 53.7965L0.667996 40.3192L-27.7499 66.989L12.7058 80.4662Z" fill="#4879A4"/>
</g>
<defs>
<clipPath id="clip0_3448_12935">
<rect width="81" height="200" fill="white"/>
</clipPath>
</defs>
</svg>
