<svg width="1440" height="916" viewBox="0 0 1440 916" fill="none" xmlns="http://www.w3.org/2000/svg">
<g clip-path="url(#clip0_3430_12848)">
<g opacity="0.8">
<path d="M1464.67 502.077L1244.17 526.955L1150.34 714.557L1370.85 689.679L1464.67 502.077Z" fill="#369EFB"/>
<path d="M1277.03 877.27L1497.53 852.391L1370.85 689.667L1150.34 714.546L1277.03 877.27Z" fill="#1A578D"/>
<path d="M1591.36 664.789L1464.67 502.065L1370.85 689.667L1497.53 852.391L1591.36 664.789Z" fill="#2471B5"/>
</g>
<path d="M98.2253 475.676L156.32 352.185L74.5705 241.151L16.4763 364.641L98.2253 475.676Z" fill="#5EB1FC"/>
<path d="M-65.2652 253.607L-123.359 377.098L16.4839 364.642L74.5781 241.151L-65.2652 253.607Z" fill="#4879A4"/>
<path d="M-41.6175 488.13L98.2258 475.673L16.4768 364.639L-123.367 377.095L-41.6175 488.13Z" fill="#508DC4"/>
<path d="M1545.17 261.674L1409.4 215.278L1295.39 298.184L1431.16 344.581L1545.17 261.674Z" fill="#5EB1FC"/>
<path d="M1317.17 427.488L1452.94 473.885L1431.17 344.582L1295.4 298.185L1317.17 427.488Z" fill="#4879A4"/>
<path d="M1566.94 390.978L1545.17 261.675L1431.17 344.582L1452.93 473.885L1566.94 390.978Z" fill="#508DC4"/>
<path d="M1423.34 106.52L1489.94 145.358L1560.51 113.185L1493.91 74.3468L1423.34 106.52Z" fill="#508DC4"/>
<path d="M1427.32 35.5059L1423.34 106.517L1493.91 74.3443L1497.89 3.33286L1427.32 35.5059Z" fill="#4879A4"/>
<path d="M45.4729 103.01L-22.2006 54.2215L-102.407 81.9878L-34.7339 130.776L45.4729 103.01Z" fill="#5EB1FC"/>
<path d="M32.9458 179.564L45.4791 103.01L-34.7276 130.776L-47.261 207.33L32.9458 179.564Z" fill="#4879A4"/>
<g opacity="0.8">
<path d="M1358.3 206.603L1365.82 101.767L1286.86 39.6052L1279.33 144.441L1358.3 206.603Z" fill="#369EFB"/>
<path d="M1200.37 82.2799L1192.85 187.116L1279.33 144.442L1286.86 39.6062L1200.37 82.2799Z" fill="#1A578D"/>
<path d="M1271.81 249.279L1358.3 206.605L1279.33 144.443L1192.85 187.117L1271.81 249.279Z" fill="#2471B5"/>
<path d="M3.32855 906.69L96.7559 674.525L-153.666 692.303L-247.094 924.468L3.32855 906.69Z" fill="#1A578D"/>
<path d="M-60.2365 460.14L-310.659 477.917L-153.664 692.305L96.7584 674.527L-60.2365 460.14Z" fill="#2471B5"/>
</g>
</g>
<defs>
<clipPath id="clip0_3430_12848">
<rect width="1440" height="916" fill="white"/>
</clipPath>
</defs>
</svg>
