<svg width="168" height="842" viewBox="0 0 168 842" fill="none" xmlns="http://www.w3.org/2000/svg">
<g clip-path="url(#clip0_3448_12971)">
<path d="M98.2253 410.676L156.32 287.185L74.5705 176.151L16.4763 299.641L98.2253 410.676Z" fill="#5EB1FC"/>
<path d="M-65.2652 188.607L-123.359 312.098L16.4839 299.642L74.5781 176.151L-65.2652 188.607Z" fill="#4879A4"/>
<path d="M-41.6175 423.13L98.2258 410.673L16.4768 299.639L-123.367 312.095L-41.6175 423.13Z" fill="#508DC4"/>
<path d="M45.4729 38.0097L-22.2006 -10.7786L-102.407 16.9877L-34.7339 65.7759L45.4729 38.0097Z" fill="#5EB1FC"/>
<path d="M32.9458 114.564L45.4791 38.0095L-34.7276 65.7758L-47.261 142.33L32.9458 114.564Z" fill="#4879A4"/>
<g opacity="0.8">
<path d="M3.32269 841.69L96.75 609.525L-153.672 627.303L-247.1 859.468L3.32269 841.69Z" fill="#1A578D"/>
<path d="M-60.2424 395.139L-310.665 412.917L-153.67 627.305L96.7526 609.527L-60.2424 395.139Z" fill="#2471B5"/>
</g>
</g>
<defs>
<clipPath id="clip0_3448_12971">
<rect width="168" height="842" fill="white"/>
</clipPath>
</defs>
</svg>
