<svg width="378" height="349" viewBox="0 0 378 349" fill="none" xmlns="http://www.w3.org/2000/svg">
<path d="M172.945 145.215H204.388V217.822H172.945V145.215ZM172.93 232.344H204.372V261.386H172.93V232.344Z" fill="#2471B5"/>
<path d="M216.448 60.9901C210.977 51.4786 200.318 45.5684 188.653 45.5684C176.988 45.5684 166.329 51.4786 160.858 61.0047L45.4955 262.316C42.9356 266.736 41.6676 271.697 41.8164 276.709C41.9653 281.72 43.526 286.609 46.3445 290.894C49.1224 295.198 53.0675 298.758 57.7903 301.223C62.5131 303.688 67.8503 304.973 73.275 304.951H304.031C315.162 304.951 325.239 299.694 330.977 290.894C333.791 286.608 335.349 281.719 335.498 276.708C335.647 271.698 334.382 266.738 331.826 262.316L216.448 60.9901ZM73.275 275.908L188.653 74.5967L304.11 275.908H73.275Z" fill="#2471B5"/>
</svg>
