<svg width="220" height="220" viewBox="0 0 220 220" fill="none" xmlns="http://www.w3.org/2000/svg">
<g opacity="0.6" filter="url(#filter0_d_983_24798)">
<path d="M120.936 13.1466L114.915 12.7158C113.84 12.7158 112.98 12.0703 112.764 11.2087L110.399 5.61434C109.54 3.46189 106.53 3.46189 105.454 5.61434L103.089 11.2087C102.658 12.0688 101.799 12.7158 100.938 12.7158L94.9176 13.1466C92.5523 13.3612 91.693 16.1591 93.4117 17.6662L98.1421 21.5387C98.787 22.1842 99.2175 23.2604 99.0015 24.1205L97.4957 30.1457C96.8507 32.5128 99.4305 34.2345 101.365 32.9435L106.526 29.7164C107.385 29.2856 108.461 29.2856 109.322 29.7164L114.482 32.9435C116.417 34.2344 118.999 32.2981 118.352 30.1457L116.849 24.3368C116.635 23.4767 116.849 22.4005 117.709 21.7551L122.439 17.881C124.159 16.3755 123.3 13.3629 120.935 13.1469L120.936 13.1466Z" fill="white"/>
<path d="M74.9133 30.7921C74.2684 30.1467 74.0539 29.0704 74.2684 28.2103L76.2032 22.4C77.0626 20.2475 74.6974 18.0967 72.5481 19.1728L66.9581 21.7546C66.0987 22.1854 65.0233 21.9692 64.1624 21.5399L59.6463 17.8805C57.7115 16.3735 55.1302 18.0952 55.3464 20.2476L56.2058 26.2728C56.4202 27.349 55.9913 28.2091 55.1304 28.8545L50.1854 32.2978C48.2506 33.5887 48.8955 36.6011 51.2608 37.0319L57.2812 38.1081C58.1406 38.3227 59.0016 38.9682 59.216 40.0444L60.9364 45.8548C61.5813 48.0072 64.5914 48.4365 65.6667 46.2856L68.6769 40.906C69.1073 40.0459 69.9667 39.6151 71.0421 39.6151L77.0626 39.8297C79.4278 39.8297 80.7176 37.0319 78.9974 35.3101L74.9133 30.7921Z" fill="white"/>
<path d="M23.3128 62.8542C23.9577 63.7143 23.9577 64.7905 23.5273 65.6521L20.9475 71.2465C19.8721 73.3989 22.0229 75.5498 24.1722 74.9044L29.978 72.9681C30.8374 72.5373 31.9128 72.9681 32.5577 73.6135L37.0738 77.7024C38.7941 79.2094 41.5899 78.1332 41.5899 75.7661L41.3755 69.7409C41.3755 68.6647 41.8059 67.8046 42.6653 67.3738L48.0407 64.3613C50.1915 63.2851 49.761 60.2724 47.6103 59.6273L41.8044 57.9056C40.945 57.691 40.0841 56.8294 39.8696 55.9693L38.7943 49.9441C38.3638 47.577 35.3537 46.9316 34.0639 48.8679L30.6233 53.8168C29.9784 54.6768 29.1175 55.1076 28.0436 54.893L22.0231 54.0329C19.6579 53.8183 18.1536 56.4 19.6579 58.3362L23.3128 62.8542Z" fill="white"/>
<path d="M23.5266 116.004C24.1715 115.359 25.2469 114.928 26.1063 115.144L32.1268 116.651C34.492 117.297 36.2125 114.715 34.9224 112.779L31.6978 107.614C31.2674 106.754 31.2674 105.678 31.6978 104.816L34.9224 99.6512C36.2123 97.7149 34.2775 95.1316 32.1268 95.7787L26.1063 97.2857C25.2469 97.5003 24.1715 97.2857 23.5266 96.4256L19.6555 91.4737C18.1497 89.752 15.1394 90.6136 15.1394 92.9807L14.709 99.0058C14.709 100.082 14.064 100.942 13.2031 101.158L7.61308 103.525C5.46231 104.385 5.46231 107.398 7.61308 108.474L13.2031 110.841C14.0625 111.272 14.709 112.132 14.709 112.994L15.1394 119.019C15.3539 121.386 18.1496 122.246 19.6555 120.526L23.5266 116.004Z" fill="white"/>
<path d="M48.0384 148.286L42.663 145.274C41.8036 144.843 41.3732 143.983 41.3732 142.907L41.5876 136.881C41.5876 134.514 38.792 133.223 37.0715 134.945L32.557 139.032C31.912 139.678 30.8366 139.893 29.9772 139.678L24.1714 137.742C22.0206 136.881 19.8715 139.249 20.9468 141.4L23.5265 146.994C23.957 147.854 23.741 148.93 23.312 149.792L19.6555 154.311C18.1496 156.248 19.8699 158.831 22.0207 158.615L28.0412 157.755C29.1166 157.54 29.976 157.969 30.6209 158.831L34.0615 163.78C35.3514 165.716 38.3614 165.071 38.7919 162.703L39.8672 156.678C40.0817 155.602 40.7267 154.957 41.8021 154.742L47.6079 153.02C49.7586 152.373 50.1891 149.361 48.0383 148.286L48.0384 148.286Z" fill="white"/>
<path d="M77.0704 172.599L71.0499 172.814C69.9745 172.814 69.1151 172.383 68.6847 171.523L65.6745 166.144C64.5991 163.991 61.5888 164.422 60.9441 166.574L59.2238 172.385C59.0094 173.245 58.1484 174.106 57.289 174.321L51.2686 175.397C48.9033 175.828 48.2584 178.841 50.1932 180.131L55.1382 183.575C55.9976 184.22 56.428 185.082 56.2136 186.156L55.3542 192.181C55.1397 194.549 57.7194 196.054 59.6541 194.549L64.5991 190.891C65.4585 190.245 66.5339 190.245 67.3948 190.676L72.9848 193.258C75.1356 194.334 77.2847 192.182 76.6399 190.031L74.7051 184.22C74.2746 183.36 74.7051 182.284 75.35 181.638L79.4357 177.119C80.7256 175.183 79.4342 172.385 77.0704 172.599L77.0704 172.599Z" fill="white"/>
<path d="M117.705 190.46C117.06 189.814 116.63 188.738 116.846 187.878L118.352 181.853C118.997 179.486 116.417 177.764 114.482 179.055L109.321 182.282C108.462 182.713 107.386 182.713 106.526 182.282L101.365 179.055C99.43 177.764 96.8487 179.7 97.4953 181.853L99.0011 187.878C99.2156 188.738 99.0012 189.814 98.1417 190.46L93.1937 194.334C91.4733 195.841 92.3343 198.854 94.6995 198.854L100.72 199.284C101.795 199.284 102.655 199.93 102.871 200.791L105.236 206.386C106.095 208.538 109.106 208.538 110.181 206.386L112.546 200.791C112.977 199.931 113.836 199.284 114.697 199.284L120.717 198.854C123.083 198.639 123.942 195.841 122.223 194.334L117.705 190.46Z" fill="white"/>
<path d="M164.579 175.182L158.558 174.106C157.699 173.891 156.838 173.245 156.623 172.169L154.687 166.359C154.042 164.206 151.032 163.777 149.957 165.928L146.947 171.308C146.516 172.168 145.657 172.599 144.581 172.599L138.561 172.384C136.196 172.384 134.906 175.182 136.626 176.904L140.712 181.423C141.357 182.069 141.571 183.145 141.357 184.005L139.422 189.815C138.563 191.968 140.928 194.119 143.077 193.042L148.667 190.461C149.526 190.03 150.602 190.246 151.463 190.675L156.408 194.333C158.343 195.84 160.924 194.119 160.708 191.966L159.418 185.941C159.203 184.865 159.632 184.005 160.493 183.359L165.438 179.916C167.374 178.624 166.73 175.611 164.579 175.182L164.579 175.182Z" fill="white"/>
<path d="M192.322 149.36C191.677 148.5 191.677 147.424 192.107 146.562L194.687 140.968C195.762 138.815 193.611 136.665 191.462 137.31L185.656 139.246C184.797 139.677 183.722 139.246 183.077 138.601L178.56 134.512C176.84 133.005 174.044 134.081 174.044 136.448L174.259 142.473C174.259 143.55 173.828 144.41 172.969 144.841L167.594 147.853C165.443 148.929 165.873 151.942 168.024 152.587L173.83 154.309C174.689 154.523 175.55 155.385 175.765 156.245L176.84 162.27C177.271 164.637 180.281 165.283 181.57 163.346L185.011 158.398C185.656 157.538 186.517 157.107 187.591 157.321L193.611 158.181C195.976 158.396 197.481 155.814 195.976 153.878L192.322 149.36Z" fill="white"/>
<path d="M208.226 103.74L202.636 101.372C201.776 100.942 201.13 100.082 201.13 99.22L200.699 93.1949C200.485 90.8278 197.689 89.9677 196.183 91.6878L192.314 96.4219C191.669 97.0673 190.594 97.4981 189.734 97.282L183.714 95.775C181.348 95.1295 179.628 97.7113 180.918 99.6475L184.143 104.812C184.573 105.672 184.573 106.749 184.143 107.61L180.918 112.775C179.628 114.711 181.563 117.295 183.714 116.648L189.734 115.141C190.594 114.926 191.669 115.14 192.314 116.001L196.183 120.735C197.689 122.456 200.699 121.595 200.699 119.228L201.13 113.202C201.13 112.126 201.775 111.266 202.636 111.05L208.226 108.683C210.591 107.613 210.591 104.599 208.226 103.739V103.74Z" fill="white"/>
<path d="M167.593 63.9302L172.969 66.9427C173.828 67.3735 174.259 68.2336 174.259 69.3098L174.044 75.335C174.044 77.7021 176.84 78.9929 178.56 77.2713L183.076 73.1824C183.721 72.537 184.797 72.3223 185.656 72.537L191.462 74.4733C193.613 75.3334 195.762 72.9663 194.687 70.8154L192.107 65.221C191.676 64.3609 191.892 63.2846 192.321 62.4231L195.976 57.4742C197.482 55.5379 195.762 52.9546 193.611 53.1709L187.591 54.4633C186.515 54.678 185.656 54.2487 185.011 53.3871L181.57 48.4382C180.281 46.5019 177.27 47.1474 176.84 49.5145L175.765 55.5396C175.55 56.6158 174.905 57.2613 173.83 57.4759L168.024 59.1976C165.873 59.843 165.443 62.8555 167.594 63.9301L167.593 63.9302Z" fill="white"/>
<path d="M138.563 39.6154L144.583 39.4007C145.659 39.4007 146.518 39.8315 146.949 40.6916L149.959 46.0712C151.034 48.2236 154.044 47.7929 154.689 45.6404L156.409 39.83C156.624 38.97 157.485 38.1084 158.344 37.8937L164.365 36.8175C166.73 36.3867 167.375 33.3742 165.44 32.0834L160.495 28.6402C159.636 27.9947 159.205 27.1331 159.42 26.0584L160.279 20.0332C160.494 17.6661 157.914 16.1607 155.979 17.6661L151.034 21.3241C150.175 21.9695 149.099 21.9695 148.238 21.5387L142.648 18.957C140.498 17.8807 138.348 20.0332 138.993 22.1841L140.928 27.9945C141.359 28.8546 140.928 29.9308 140.283 30.5762L136.197 35.0959C134.908 37.0322 136.199 39.8299 138.563 39.6155L138.563 39.6154Z" fill="white"/>
</g>
<defs>
<filter id="filter0_d_983_24798" x="0" y="0" width="220" height="220" filterUnits="userSpaceOnUse" color-interpolation-filters="sRGB">
<feFlood flood-opacity="0" result="BackgroundImageFix"/>
<feColorMatrix in="SourceAlpha" type="matrix" values="0 0 0 0 0 0 0 0 0 0 0 0 0 0 0 0 0 0 127 0" result="hardAlpha"/>
<feOffset dx="2" dy="4"/>
<feGaussianBlur stdDeviation="4"/>
<feComposite in2="hardAlpha" operator="out"/>
<feColorMatrix type="matrix" values="0 0 0 0 0 0 0 0 0 0 0 0 0 0 0 0 0 0 0.25 0"/>
<feBlend mode="normal" in2="BackgroundImageFix" result="effect1_dropShadow_983_24798"/>
<feBlend mode="normal" in="SourceGraphic" in2="effect1_dropShadow_983_24798" result="shape"/>
</filter>
</defs>
</svg>
