<svg width="32" height="32" viewBox="0 0 32 32" fill="none" xmlns="http://www.w3.org/2000/svg">
<path d="M31.9962 16.098C31.9962 7.20605 24.8322 -0.00195312 15.9962 -0.00195312C7.15619 4.68751e-05 -0.0078125 7.20605 -0.0078125 16.1C-0.0078125 24.134 5.84419 30.794 13.4922 32.002V20.752H9.43219V16.1H13.4962V12.55C13.4962 8.51605 15.8862 6.28805 19.5402 6.28805C21.2922 6.28805 23.1222 6.60205 23.1222 6.60205V10.562H21.1042C19.1182 10.562 18.4982 11.804 18.4982 13.078V16.098H22.9342L22.2262 20.75H18.4962V32C26.1442 30.792 31.9962 24.132 31.9962 16.098Z" fill="#041925"/>
</svg>
