<svg width="220" height="220" viewBox="0 0 220 220" fill="none" xmlns="http://www.w3.org/2000/svg">
<g opacity="0.5" filter="url(#filter0_d_983_24791)">
<path fill-rule="evenodd" clip-rule="evenodd" d="M95.9432 4.67509C73.5896 7.26647 51.8847 17.9694 35.5758 34.4431C-14.1093 84.6291 0.874392 168.112 65.0218 198.496C96.9294 213.609 135.247 210.535 165.448 190.439C173.79 184.889 186.399 172.283 192.105 163.79C215.965 128.275 215.965 83.8104 192.105 48.295C186.399 39.8019 173.79 27.1962 165.448 21.6466C144.747 7.87182 120.156 1.86775 95.9432 4.67509ZM115.594 19.6293C116.955 22.6171 119.737 23.0151 122.572 20.6302C124.773 18.7777 125.204 18.71 128.219 19.7464C130.013 20.363 131.67 20.8799 131.899 20.8938C135.425 21.1106 137.233 22.2649 137.97 24.7679C138.897 27.91 141.644 28.8449 144.874 27.1156C146.422 26.2882 147.325 26.361 149.513 27.4928L152.231 28.8987L150.176 32.1292C149.046 33.9062 142.437 44.0758 135.491 54.7275C127.82 66.4902 121.575 77.1307 119.585 81.8295C117.783 86.0835 115.806 89.5647 115.191 89.5647C113.563 89.5647 113.749 88.6506 117.098 80.2477C119.097 75.2297 121.901 64.29 125.361 48.0045C128.241 34.4474 130.489 23.0611 130.357 22.702C130.226 22.3421 126.499 33.2393 122.076 46.9169C116.763 63.3421 113.645 74.5107 112.891 79.8123C112.263 84.2275 111.485 88.1042 111.162 88.4277C109.563 90.0252 109.162 86.6593 110.055 79.1575C110.817 72.7606 110.758 65.3446 109.791 45.9846C109.106 32.2714 108.3 21.0508 107.999 21.0508C107.699 21.0508 106.892 32.2714 106.207 45.9846C105.239 65.3645 105.18 72.7536 105.944 79.1575C106.839 86.6585 106.437 90.0252 104.839 88.4277C104.515 88.1042 103.737 84.2275 103.109 79.8123C102.356 74.5107 99.2374 63.3421 93.9248 46.9169C89.5022 33.2393 85.7751 22.3421 85.6433 22.702C85.5114 23.0611 87.7596 34.4474 90.6401 48.0045C94.1 64.29 96.9034 75.2297 98.9026 80.2477C102.251 88.6506 102.438 89.5647 100.81 89.5647C100.195 89.5647 98.2209 86.0913 96.4228 81.846C94.4392 77.1619 88.1838 66.5093 80.5094 54.744C73.554 44.0836 66.943 33.9062 65.8171 32.1292L63.7702 28.8987L66.4876 27.4928C68.676 26.361 69.5789 26.2882 71.1263 27.1156C74.3572 28.8449 77.1041 27.91 78.0305 24.7679C78.8007 22.1513 79.7079 21.5833 84.35 20.8079C84.7161 20.7472 86.3719 20.2312 88.0302 19.6605C90.7468 18.7274 91.2811 18.8228 93.4287 20.6302C96.2641 23.0151 99.0457 22.6171 100.407 19.6293C101.27 17.7361 101.842 17.5817 108 17.5817C114.159 17.5817 114.731 17.7361 115.594 19.6293ZM75.4067 52.9227C82.6474 67.2786 89.1058 78.8383 92.3497 83.2466C95.2328 87.1649 97.592 90.7754 97.592 91.2688C97.592 93.5723 94.9847 91.5091 90.2195 85.4356C85.6771 79.6466 66.2283 61.245 50.3209 47.6862C44.4202 42.6561 44.1106 42.2814 65.2967 65.8172C74.1499 75.652 83.8478 85.4903 87.5228 88.3661C93.4903 93.0346 95.5294 95.6355 93.2249 95.6355C92.7305 95.6355 88.9254 93.1525 84.7681 90.1171C79.9386 86.5917 69.2207 80.6067 55.0914 73.5454C42.9266 67.4659 32.638 62.1791 32.2277 61.7966C30.9545 60.6102 34.4386 55.6763 36.163 56.2236C39.6454 57.3293 43.0524 53.1066 41.3081 49.8474C40.583 48.4919 41.2561 47.4156 45.3804 43.3386C49.1465 39.6146 50.6297 38.6502 51.6219 39.2789C53.6099 40.5399 54.9205 40.3014 56.9015 38.3206C58.0924 37.1299 58.5469 35.8584 58.2321 34.6009C57.8721 33.1691 58.3414 32.3261 60.1082 31.2307C61.404 30.4268 62.7432 29.759 63.085 29.7468C63.4267 29.7338 68.9709 40.1635 75.4067 52.9227ZM155.762 31.196C157.669 32.3226 158.141 33.1188 157.772 34.5896C157.453 35.8602 157.903 37.1247 159.099 38.3206C161.08 40.3014 162.391 40.5399 164.379 39.2789C165.371 38.6502 166.854 39.6146 170.62 43.3386C174.745 47.4156 175.418 48.4919 174.693 49.8474C172.948 53.1066 176.355 57.3293 179.838 56.2236C180.884 55.8923 181.814 56.5228 182.841 58.2608C183.658 59.6458 184.328 60.9935 184.328 61.2554C184.328 61.5173 173.834 67.0357 161.007 73.5185C145.966 81.121 135.265 87.1311 130.867 90.4475C127.115 93.2766 123.559 95.6008 122.962 95.613C120.481 95.665 122.368 93.1777 128.29 88.5933C131.855 85.8346 141.49 76.051 150.498 66.0445C171.909 42.2606 171.589 42.6474 165.68 47.6966C149.218 61.7636 130.307 79.6449 125.784 85.4209C121.018 91.5065 118.409 93.5749 118.409 91.2688C118.409 90.7754 120.756 87.1736 123.625 83.2657C126.798 78.9433 133.438 67.0652 140.578 52.9418C147.034 40.1714 152.531 29.7234 152.793 29.7234C153.055 29.7234 154.391 30.386 155.762 31.196ZM57.6891 79.1809C67.5441 85.5917 79.0435 92.313 83.4931 94.2618C87.908 96.1949 91.5205 98.2703 91.5205 98.8739C91.5205 100.48 90.5846 100.286 82.2025 96.9408C77.1744 94.9348 66.3194 92.15 50.0893 88.7017C36.6044 85.8372 25.0902 83.5051 24.5022 83.5181C23.9141 83.5311 33.9711 87.047 46.8514 91.3313C67.5397 98.213 80.8129 101.678 86.6468 101.719C89.2159 101.738 91.2915 103.164 90.2125 104.169C89.686 104.659 86.1542 104.587 81.1122 103.984C74.6876 103.215 67.4738 103.274 48.3693 104.252C34.8923 104.94 23.8664 105.747 23.8664 106.043C23.8664 106.338 34.8923 107.145 48.3693 107.834C67.4738 108.811 74.6876 108.87 81.1122 108.102C86.1542 107.499 89.686 107.427 90.2125 107.917C91.2915 108.921 89.2159 110.347 86.6468 110.366C80.8129 110.408 67.5397 113.872 46.8514 120.754C33.9711 125.038 23.9141 128.554 24.5022 128.567C25.0902 128.58 36.6044 126.248 50.0893 123.384C66.3194 119.935 77.1744 117.151 82.2025 115.145C90.5846 111.8 91.5205 111.605 91.5205 113.212C91.5205 113.815 87.908 115.89 83.4931 117.824C79.0435 119.772 67.5441 126.494 57.6891 132.904C47.9122 139.265 37.876 145.779 35.3858 147.381L30.859 150.291L29.4479 147.563C28.3107 145.364 28.2362 144.46 29.0645 142.913C30.794 139.682 29.859 136.936 26.7165 136.009C24.0997 135.239 23.5316 134.332 22.7562 129.69C22.6955 129.324 22.1794 127.669 21.6086 126.011C20.6754 123.294 20.7708 122.76 22.5784 120.613C24.9636 117.778 24.5655 114.996 21.5774 113.636C19.684 112.773 19.5296 112.2 19.5296 106.043C19.5296 99.8851 19.684 99.3127 21.5774 98.4498C24.5655 97.0891 24.9636 94.3077 22.5784 91.4726C20.7708 89.3253 20.6754 88.7911 21.6086 86.0748C22.1794 84.4166 22.6955 82.761 22.7562 82.395C23.5316 77.7534 24.0997 76.8462 26.7165 76.0761C29.859 75.1499 30.794 72.4032 29.0645 69.1727C28.2362 67.6255 28.3107 66.7218 29.4479 64.5224L30.859 61.794L35.3858 64.7045C37.876 66.3064 47.9122 72.8204 57.6891 79.1809ZM186.557 64.5319C187.691 66.7227 187.765 67.6255 186.936 69.1727C185.207 72.4032 186.142 75.1499 189.284 76.0761C191.323 76.6763 192.214 77.5453 192.603 79.3136C192.894 80.6431 193.116 81.8347 193.095 81.9614C193.075 82.0889 193.591 83.7445 194.243 85.6412C195.355 88.8769 195.305 89.236 193.422 91.4726C191.037 94.3077 191.435 97.0891 194.423 98.4498C196.317 99.3127 196.471 99.8851 196.471 106.043C196.471 112.2 196.317 112.773 194.423 113.636C191.435 114.996 191.037 117.778 193.422 120.613C195.23 122.76 195.325 123.294 194.392 126.011C193.821 127.669 193.305 129.324 193.245 129.69C192.469 134.332 191.901 135.239 189.284 136.009C186.142 136.936 185.207 139.682 186.936 142.913C187.764 144.458 187.692 145.361 186.568 147.534L185.17 150.236L180.196 147.054C177.459 145.305 167.342 138.728 157.711 132.44C147.224 125.593 137.05 119.673 132.341 117.679C128.017 115.849 124.48 113.847 124.48 113.232C124.48 111.606 125.39 111.791 133.798 115.128C138.75 117.093 149.929 119.961 165.912 123.367C179.398 126.24 190.912 128.57 191.499 128.543C192.087 128.516 182.03 125.001 169.149 120.732C153.598 115.577 142.38 112.39 135.756 111.245C130.27 110.297 125.683 109.519 125.564 109.516C125.446 109.513 125.348 108.934 125.348 108.227C125.348 107.224 126.152 107.042 129.034 107.396C131.062 107.645 135.062 108.133 137.924 108.481C143.599 109.17 193.002 106.984 193.002 106.043C193.002 105.102 143.599 102.915 137.924 103.605C135.062 103.953 131.062 104.441 129.034 104.69C126.152 105.044 125.348 104.861 125.348 103.858C125.348 103.151 125.446 102.572 125.564 102.569C125.683 102.567 130.27 101.789 135.756 100.84C142.38 99.6952 153.598 96.508 169.149 91.353C182.03 87.0843 192.087 83.5693 191.499 83.5424C190.912 83.5155 179.398 85.845 165.912 88.7182C149.929 92.124 138.75 94.992 133.798 96.9572C125.39 100.294 124.48 100.479 124.48 98.8531C124.48 98.2382 127.996 96.2461 132.292 94.4274C137.316 92.3 148.071 85.9074 162.432 76.5123C174.713 68.478 184.849 61.8833 184.956 61.8582C185.064 61.833 185.784 63.0359 186.557 64.5319ZM94.4383 117.126C94.6682 117.498 91.6185 120.393 87.6608 123.561C81.774 128.272 66.3167 144.654 47.3606 166.276C44.3127 169.753 52.5743 162.675 70.2702 146.649C78.38 139.305 87.3572 130.308 90.2195 126.656C94.9839 120.577 97.592 118.511 97.592 120.817C97.592 121.31 95.2328 124.92 92.3497 128.839C89.1058 133.247 82.6474 144.807 75.4067 159.163C68.9709 171.923 63.4866 182.362 63.2185 182.362C62.9505 182.362 61.6096 181.699 60.2391 180.889C58.3318 179.763 57.86 178.967 58.2286 177.496C58.5478 176.225 58.0976 174.961 56.9015 173.765C54.9205 171.784 53.6099 171.545 51.6219 172.806C50.6297 173.435 49.1465 172.471 45.3804 168.747C41.2561 164.67 40.583 163.593 41.3081 162.238C43.0524 158.979 39.6454 154.756 36.163 155.862C34.4378 156.409 30.9553 151.476 32.2277 150.287C32.638 149.904 43.1218 144.501 55.525 138.279C70.1826 130.927 80.505 125.146 85.0153 121.762C91.8276 116.65 93.6039 115.776 94.4383 117.126ZM130.867 121.638C135.265 124.954 145.966 130.964 161.007 138.567C173.834 145.05 184.328 150.568 184.328 150.83C184.328 151.092 183.665 152.428 182.855 153.799C181.758 155.656 180.916 156.174 179.548 155.831C178.442 155.553 176.873 156.05 175.6 157.082C173.711 158.612 173.59 159.071 174.464 161.388C175.399 163.872 175.235 164.181 170.56 168.702C165.989 173.122 165.523 173.362 163.204 172.489C161.031 171.67 160.52 171.813 159.031 173.652C158.011 174.911 157.517 176.48 157.794 177.582C158.137 178.95 157.619 179.792 155.762 180.889C154.391 181.699 153.055 182.362 152.793 182.362C152.531 182.362 147.034 171.914 140.578 159.144C133.438 145.02 126.798 133.142 123.625 128.82C120.756 124.912 118.409 121.31 118.409 120.817C118.409 118.517 120.993 120.534 125.469 126.327C129.407 131.421 151.599 152.341 168.282 166.683L170.884 168.919L168.647 166.318C154.412 149.763 133.338 127.4 128.29 123.492C122.368 118.908 120.481 116.42 122.962 116.472C123.559 116.485 127.115 118.809 130.867 121.638ZM101.929 123.382C101.929 123.855 100.567 127.661 98.9026 131.838C96.9034 136.856 94.1 147.795 90.6401 164.081C87.7596 177.638 85.5114 189.024 85.6433 189.383C85.7751 189.743 89.5022 178.846 93.9248 165.168C99.2374 148.743 102.356 137.575 103.109 132.273C103.737 127.858 104.515 123.981 104.839 123.658C106.437 122.06 106.839 125.427 105.944 132.928C105.18 139.332 105.239 146.721 106.207 166.101C106.892 179.815 107.699 191.035 107.999 191.035C108.3 191.035 109.106 179.815 109.791 166.101C110.758 146.741 110.817 139.325 110.055 132.928C109.162 125.426 109.563 122.06 111.162 123.658C111.485 123.981 112.263 127.858 112.891 132.273C113.645 137.575 116.763 148.743 122.076 165.168C126.499 178.846 130.226 189.743 130.357 189.383C130.489 189.024 128.241 177.638 125.361 164.081C121.901 147.795 119.097 136.856 117.098 131.838C113.749 123.435 113.563 122.521 115.191 122.521C115.806 122.521 117.78 125.994 119.578 130.239C121.562 134.923 127.817 145.576 135.491 157.341C142.447 168.002 149.058 178.179 150.184 179.956L152.231 183.187L149.513 184.593C147.325 185.724 146.422 185.797 144.874 184.97C141.644 183.241 138.897 184.175 137.97 187.318C137.233 189.82 135.425 190.975 131.899 191.192C131.67 191.205 130.013 191.722 128.219 192.339C125.204 193.375 124.773 193.308 122.572 191.455C119.737 189.07 116.955 189.468 115.594 192.456C114.731 194.349 114.159 194.504 108 194.504C101.842 194.504 101.27 194.349 100.407 192.456C99.0457 189.468 96.2641 189.07 93.4287 191.455C91.1918 193.337 90.8327 193.387 87.5966 192.276C85.6997 191.623 84.0439 191.107 83.9164 191.128C83.7897 191.149 82.598 190.927 81.2683 190.636C79.4998 190.247 78.6307 189.356 78.0305 187.318C77.1041 184.175 74.3572 183.241 71.1263 184.97C69.5789 185.797 68.676 185.724 66.4876 184.593L63.7702 183.187L65.8171 179.956C66.943 178.179 73.554 168.002 80.5094 157.341C88.1838 145.576 94.4392 134.923 96.4228 130.239C98.2209 125.994 100.195 122.521 100.81 122.521C101.426 122.521 101.929 122.908 101.929 123.382Z" fill="white"/>
</g>
<defs>
<filter id="filter0_d_983_24791" x="0" y="0" width="220" height="220" filterUnits="userSpaceOnUse" color-interpolation-filters="sRGB">
<feFlood flood-opacity="0" result="BackgroundImageFix"/>
<feColorMatrix in="SourceAlpha" type="matrix" values="0 0 0 0 0 0 0 0 0 0 0 0 0 0 0 0 0 0 127 0" result="hardAlpha"/>
<feOffset dx="2" dy="4"/>
<feGaussianBlur stdDeviation="4"/>
<feComposite in2="hardAlpha" operator="out"/>
<feColorMatrix type="matrix" values="0 0 0 0 0 0 0 0 0 0 0 0 0 0 0 0 0 0 0.25 0"/>
<feBlend mode="normal" in2="BackgroundImageFix" result="effect1_dropShadow_983_24791"/>
<feBlend mode="normal" in="SourceGraphic" in2="effect1_dropShadow_983_24791" result="shape"/>
</filter>
</defs>
</svg>
