<svg width="12" height="16" viewBox="0 0 12 16" fill="none" xmlns="http://www.w3.org/2000/svg">
<path d="M6 8.66602C7.10457 8.66602 8 7.77059 8 6.66602C8 5.56145 7.10457 4.66602 6 4.66602C4.89543 4.66602 4 5.56145 4 6.66602C4 7.77059 4.89543 8.66602 6 8.66602Z" stroke="#041925" stroke-linecap="round" stroke-linejoin="round"/>
<path d="M6.0013 1.33301C4.58681 1.33301 3.23026 1.89491 2.23007 2.8951C1.22987 3.8953 0.667969 5.25185 0.667969 6.66634C0.667969 7.92767 0.935969 8.75301 1.66797 9.66634L6.0013 14.6663L10.3346 9.66634C11.0666 8.75301 11.3346 7.92767 11.3346 6.66634C11.3346 5.25185 10.7727 3.8953 9.77254 2.8951C8.77234 1.89491 7.41579 1.33301 6.0013 1.33301V1.33301Z" stroke="#041925" stroke-linecap="round" stroke-linejoin="round"/>
</svg>
