<svg width="24" height="24" viewBox="0 0 24 24" fill="none" xmlns="http://www.w3.org/2000/svg">
<circle cx="12" cy="12" r="12" fill="#2471B5"/>
<path d="M12 12.6641C13.1046 12.6641 14 11.7686 14 10.6641C14 9.55949 13.1046 8.66406 12 8.66406C10.8954 8.66406 10 9.55949 10 10.6641C10 11.7686 10.8954 12.6641 12 12.6641Z" stroke="white" stroke-linecap="round" stroke-linejoin="round"/>
<path d="M12.0013 5.33203C10.5868 5.33203 9.23026 5.89393 8.23007 6.89413C7.22987 7.89432 6.66797 9.25088 6.66797 10.6654C6.66797 11.9267 6.93597 12.752 7.66797 13.6654L12.0013 18.6654L16.3346 13.6654C17.0666 12.752 17.3346 11.9267 17.3346 10.6654C17.3346 9.25088 16.7727 7.89432 15.7725 6.89413C14.7723 5.89393 13.4158 5.33203 12.0013 5.33203V5.33203Z" stroke="white" stroke-linecap="round" stroke-linejoin="round"/>
</svg>
