<svg width="14" height="21" viewBox="0 0 14 21" fill="none" xmlns="http://www.w3.org/2000/svg">
<path fill-rule="evenodd" clip-rule="evenodd" d="M6.09616 19.1077C5.17438 18.1598 4.30722 17.1477 3.49999 16.0774C1.9 13.9545 0 10.7929 0 7.78016C-0.000693018 6.24153 0.409508 4.73725 1.17869 3.4577C1.94787 2.17815 3.04146 1.18085 4.32106 0.592004C5.60065 0.00316262 7.00873 -0.150748 8.3671 0.149751C9.72546 0.450249 10.973 1.19165 11.952 2.28012C12.6037 3.00094 13.1203 3.85819 13.4719 4.80227C13.8234 5.74635 14.0029 6.7585 14 7.78016C14 10.7929 12.1 13.9545 10.5 16.0774C9.69275 17.1477 8.82559 18.1598 7.90381 19.1077C8.55426 19.2727 9 19.6103 9 20C9 20.5523 8.10457 21 7 21C5.89543 21 5 20.5523 5 20C5 19.6103 5.44573 19.2727 6.09616 19.1077ZM4.87867 5.4236C5.44128 4.7986 6.20434 4.44748 6.99998 4.44748C7.79563 4.44748 8.55869 4.7986 9.1213 5.4236C9.68391 6.0486 9.99998 6.89628 9.99998 7.78016C9.99998 8.66404 9.68391 9.51173 9.1213 10.1367C8.55869 10.7617 7.79563 11.1128 6.99998 11.1128C6.20434 11.1128 5.44128 10.7617 4.87867 10.1367C4.31606 9.51173 3.99999 8.66404 3.99999 7.78016C3.99999 6.89628 4.31606 6.0486 4.87867 5.4236Z" fill="#041925"/>
</svg>
