<svg width="490" height="275" viewBox="0 0 490 275" fill="none" xmlns="http://www.w3.org/2000/svg">
<g clip-path="url(#clip0_2245_10917)">
<path d="M370.898 27.8036C374.16 28.4666 377.298 28.755 377.818 33.4262C378.084 35.8054 381.29 36.0488 383.656 36.113C387.902 36.2289 389.012 36.9159 388.759 40.7056C388.555 43.766 389.543 44.6715 392.401 44.9235C396.164 45.2551 399.689 46.3292 403.65 44.8047C407.214 43.4335 409.252 45.2436 410.944 49.541C411.303 50.4513 411.817 51.6653 412.879 51.009C417.722 48.0175 423.504 50.3478 428.692 47.708C432.139 45.9545 437.049 46.7489 440.507 50.0757C442.179 51.6845 444.163 52.4577 446.238 51.0435C448.438 49.5439 450.26 50.9237 451.392 52.0898C454.989 55.7932 459.049 54.6922 463.176 53.9046C463.728 53.7992 464.263 53.5999 464.806 53.4447C467.047 52.8017 464.947 57.952 467.459 55.7568C468.79 54.5936 469.721 54.3502 471.227 54.1672C478.086 53.3326 483.144 57.2276 488.403 60.68L485.887 66.5968C485.706 66.5505 485.523 66.508 485.339 66.4693C483.847 66.1579 482.485 63.544 482.035 64.2588C481.105 65.7344 479.234 66.9963 479.477 69.0603C479.789 71.7087 478.481 72.3344 476.138 72.4465C474.052 72.5462 471.92 72.916 470.305 74.567C468.989 75.9132 467.43 75.9401 465.564 75.8682C460.742 75.6823 458.147 77.9743 457.544 82.8678C456.925 87.8867 452.244 89.6881 449.768 93.2229C448.968 94.3651 448.25 92.8847 447.82 92.1229C445.856 88.637 447.073 85.3964 448.825 82.3379C449.673 80.8584 451.036 79.6818 452.112 78.324C452.764 77.501 454.462 76.972 453.689 75.6919C453.005 74.5593 451.432 74.2517 450.07 74.2872C448.367 74.3322 447.215 75.5012 446.43 76.8283C445.062 79.1414 443.451 78.8012 441.081 78.3758C434.903 77.2672 428.508 76.6185 424.205 82.8256C423.066 84.4689 419.541 84.7085 420.616 87.377C421.628 89.8884 424.743 88.2269 426.853 88.8775C428.412 89.3576 430.514 88.8191 430.583 90.9204C430.658 93.1855 432.961 95.7209 430.392 97.7388C429.595 98.3655 428.875 98.7469 428.767 99.8133C428.712 100.351 428.731 101.164 428.074 101.162C427.453 101.161 427.521 100.358 427.457 99.8411C427.41 99.4597 427.442 99.0698 427.398 98.6875C427.276 97.6152 427.748 96.452 426.916 95.4871C426.626 96.5727 426.527 97.7609 426.013 98.7277C423.565 103.343 420.957 107.703 415.236 109.092C409.996 110.365 409.475 111.439 410.736 116.738C411.195 118.67 411.205 120.315 409.136 120.998C407.136 121.658 406.513 119.798 405.823 118.51C405.291 117.518 404.992 116.351 404.819 115.227C404.566 113.581 403.653 113.432 402.371 113.903C401.374 114.27 400.315 115.514 399.405 114.04C398.777 113.024 398.377 112.351 397.471 113.627C396.928 114.39 396.074 115.331 396.18 116.075C396.411 117.692 397.609 116.383 398.388 116.459C400.615 116.677 402.714 116.943 399.787 119.571C398.46 120.763 398.857 122.323 399.161 123.879C400.715 131.826 397.313 137.697 389.779 140.392C387.897 141.065 385.546 140.95 384.733 143.607C384.215 145.3 383.442 145.157 382.69 143.462C381.781 141.412 380.42 142.724 379.399 143.439C378.015 144.41 377.992 145.627 379.277 146.793C379.847 147.311 380.458 147.788 380.991 148.341C384.629 152.111 383.348 157.39 378.398 159.359C377.034 159.902 376.824 158.969 376.278 158.193C374.791 156.082 372.227 153.591 370.318 155.319C367.856 157.55 370.46 160.199 372.419 162.076C373.86 163.457 375.557 165.12 375.191 166.913C374.354 171.016 377.984 173.511 378.215 177.146C378.319 178.784 379.895 179.03 381.207 179.394C385.056 180.462 388.639 182.67 392.892 182.006C393.623 181.892 394.698 182.186 394.751 182.974C394.828 184.091 393.669 183.769 392.991 183.83C388.14 184.266 383.174 183.448 378.811 182.052C375.447 180.976 372.601 177.102 370.415 173.869C368.599 171.176 366.609 168.606 364.456 166.176C363.827 165.465 362.649 165.017 363.41 163.943C364.269 162.732 365.522 163.208 366.412 163.993C367.704 165.132 368.831 166.458 370.044 167.689C370.445 168.098 371.021 168.544 371.507 168.133C372.077 167.652 371.467 167.129 371.168 166.711C368.011 162.288 366.827 157.381 367.26 151.974C367.422 149.958 367.093 147.94 364.105 148.586C361.535 149.142 361.603 146.686 360.71 145.421C356.963 140.113 355.571 139.977 350.758 144.28C349.653 145.268 348.441 146.137 347.233 146.995C343.075 149.95 341.98 154.326 344.116 159.184C344.553 160.179 345.625 161.281 344.441 162.289C343.35 163.219 342.43 162.043 341.391 161.687C336.594 160.046 334.787 156.045 334.128 151.739C333.145 145.326 328.324 141.619 324.877 136.921C323.993 135.715 322.672 135.46 321.287 135.436C319.555 135.405 317.81 135.252 316.096 135.42C315.029 135.524 314.013 135.369 313.012 135.149C311.305 134.776 310.292 136.972 311.685 138.029C312.349 138.533 313.07 138.992 313.684 139.538C314.79 140.521 313.651 141.117 313.33 141.951C311.297 147.225 306.228 148.583 301.872 150.587C299.149 151.839 296.569 153.732 293.383 153.92C292.792 153.955 292.203 154.266 292.203 154.943C292.203 155.856 292.925 156.297 293.693 156.366C295.644 156.542 297.363 155.476 299.229 155.178C301.828 154.764 303.082 156.529 301.923 158.895C299.637 163.564 296.697 167.872 292.486 171.154C286.037 176.182 285.423 178.235 287.841 185.766C289.736 191.667 289.514 192.557 284.374 196.461C282.413 197.951 280.732 199.316 281.708 202.136C282.093 203.252 282.188 204.776 281.265 205.413C277.578 207.963 276.371 212.204 274.056 215.653C270.334 221.199 264.63 220.932 259.143 221.35C257.423 221.481 256.126 219.774 255.952 218.439C255.324 213.636 252.945 209.263 251.296 205.027C248.759 198.509 246.855 192.889 249.397 186.016C250.127 184.043 249.166 180.784 247.869 178.868C245.696 175.657 244.664 172.422 244.764 168.645C244.796 167.441 244.142 165.943 242.931 166.119C239.627 166.6 236.947 163.553 234.18 164.177C231.074 164.877 227.674 164.265 224.82 166.042C222.903 167.236 221.207 166.756 219.461 165.607C215.078 162.723 212.595 158.005 208.77 154.582C208.369 154.223 208.127 153.518 208.223 152.988C209.538 145.698 207.023 137.315 213.893 131.595C217.233 128.815 218.552 124.554 221.766 121.704C223.115 120.507 223.177 118.887 221.127 118.086C219.759 117.551 218.333 116.782 218.778 115.303C219.52 112.84 218.092 110.243 219.339 107.989C220.459 105.966 222.633 106.333 224.537 106.434C230.214 106.737 230.732 106.301 229.724 100.506C229.297 98.0512 229.881 96.9062 231.975 95.3884C234.405 93.6273 236.727 91.5796 239.197 89.8328C243.171 87.0215 243.62 85.9292 240.782 81.6595C239.894 80.3238 239.318 79.0168 238.968 77.5125C237.993 73.3213 238.65 71.518 242.601 69.6591C245.359 68.3627 247.426 66.6658 248.638 63.8305C250.745 58.9044 254.803 56.1123 259.606 54.2611C261.577 53.5012 263.637 52.9713 265.622 52.2422C269.158 50.9429 272.178 50.3421 275.384 53.7388C277.495 55.9743 281.521 55.6303 284.315 57.4432C285.264 58.0603 286.74 58.1666 287.334 58.9773C289.66 62.146 291.364 63.7864 292.685 58.3046C292.988 57.0465 294.997 56.6268 296.08 57.9185C297.726 59.8818 299.209 59.4219 301.077 58.342C304.21 56.531 307.845 57.4489 311.22 56.7907C314.801 56.0922 312.451 54.5466 311.99 53.2138L312.054 53.1342C314.872 53.712 317.676 54.3703 320.511 54.8341C322.012 55.0794 323.07 55.1158 323.536 52.7634C324.547 47.6572 326.837 46.6943 332.437 47.2222C334.441 47.411 336.378 47.0651 338.408 47.9629C339.58 48.4813 341.683 48.2532 342.008 46.1682C342.462 43.2601 343.946 43.6348 346.134 44.2767C348.157 44.8699 350.918 45.8846 350.889 41.796C350.882 40.7247 352.204 40.5293 353.134 40.3261C357.215 39.435 361.023 37.5589 365.423 37.7553C369.464 37.9354 370.554 35.2496 368.382 31.3929C369.573 30.4482 370.258 29.1422 370.898 27.8036ZM241.415 107.436C237.155 108.189 234.265 110.762 232.53 114.469C231.682 116.281 230.943 117.906 229.068 118.798C228.443 119.095 227.176 118.924 227.329 119.741C227.449 120.377 228.727 120.244 229.413 120.004C232.846 118.806 236.264 117.684 239.945 117.364C241.955 117.188 243.76 117.478 245.513 118.28C247.235 119.07 247.014 120.701 247.109 122.249C247.184 123.453 248.124 124.456 249.327 124.518C253.182 124.717 256.855 127.989 260.939 125.137C261.569 124.697 262.938 124.788 263.706 125.165C267.953 127.253 272.496 125.804 276.861 126.405C278.999 126.699 279.759 124.604 280.169 123.049C280.669 121.148 279.128 121.11 277.65 121.007C276.369 120.918 275.041 119.845 273.877 120.045C269.869 120.731 268.104 119.064 267.851 115.212C267.8 114.434 267.328 113.693 266.363 113.826C265.713 113.916 265.769 114.63 265.523 115.103C264.104 117.838 260.43 118.307 258.673 115.981C258.14 115.276 258.093 113.404 257.319 113.793C253.329 115.798 251.564 112.089 248.905 110.801C247.16 109.955 246.074 109.644 245.899 112.182C245.806 113.532 245.052 115.236 243.532 114.788C241.347 114.144 243.286 112.627 243.379 111.482C243.524 109.766 244.764 107.482 241.415 107.436ZM256.639 86.415C259.299 86.5539 259.079 86.414 260.159 84.7094C262.696 80.7051 261.69 76.7469 260.366 72.7589C259.994 71.6368 260.142 69.5643 258.088 70.2973C256.524 70.8559 255.545 72.6784 256.559 74.0572C259.984 78.7217 255.477 80.9734 253.634 83.7943C252.482 85.5584 250.166 87.3473 248.21 84.0157C247.923 83.528 247.264 83.1332 246.801 83.5931C246.469 83.9227 246.337 84.673 246.43 85.178C247.04 88.4875 249.644 87.7823 251.87 87.7881C253.587 87.7929 254.675 85.5775 256.639 86.415ZM288.283 109.7C287.472 106.533 282.985 106.807 282.322 103.174C282.171 102.345 281.04 104.446 280.235 105.056C278.96 106.02 277.673 106.309 276.883 104.722C276.237 103.424 275.542 102.644 274.419 103.829C273.135 105.184 271.614 106.583 271.861 108.77C272.018 110.161 273.086 110.954 274.259 110.698C277.942 109.895 281.353 110.411 284.829 111.781C286.286 112.354 287.881 111.666 288.283 109.7ZM284.653 139.759C283.448 140.02 283.402 140.897 283.338 141.856C283.153 144.652 285.161 146.278 286.637 148.182C287.307 149.045 287.995 150.589 289.103 150.116C290.701 149.434 289.694 147.863 289.392 146.676C288.818 144.423 287.159 142.775 285.996 140.851C285.73 140.408 285.154 140.153 284.653 139.759ZM-3.46094 90.3301C1.35197 87.3751 6.22518 84.5494 11.6123 82.7288C12.2995 82.4969 13.2546 82.0705 13.1799 81.2388C13.0938 80.2759 11.9329 80.6946 11.3242 80.3362C8.84457 78.8759 6.27399 77.5431 3.92352 75.896C1.01988 73.8608 1.15482 72.1763 4.14459 70.3529C4.78963 69.9591 5.54856 69.755 6.25102 69.4522C7.05588 69.1044 8.69432 69.3439 8.37276 68.1548C8.09043 67.1104 6.69029 68.0973 5.78973 68.0465C5.03272 68.0044 4.21924 68.0475 3.53688 67.7801C2.22096 67.2646 1.06008 66.2825 1.29551 64.7839C1.59506 62.8761 3.28709 62.7286 4.87289 62.7104C5.57918 62.7017 6.59172 63.5306 6.90563 62.6452C7.19752 61.8231 5.98783 61.6918 5.3782 61.2961C0.823692 58.3353 0.840918 57.6109 5.42893 54.9442C6.58981 54.2697 7.67699 53.4409 8.89529 52.9014C12.3588 51.3683 15.6137 50.4398 19.7011 51.879C24.1312 53.4389 29.1135 53.3479 33.7867 54.3128C39.5844 55.5096 45.0893 55.5374 51.0018 54.033C56.6808 52.5881 62.7685 53.6632 68.4648 55.6686C69.149 55.9091 70.0266 56.5147 70.5587 55.7194C71.0401 54.9998 70.4525 54.2189 69.8084 53.7848C68.8466 53.1381 67.9671 52.5948 67.7231 51.2533C67.4465 49.7336 66.5488 49.3944 65.3783 50.6544C63.9906 52.1483 62.3206 52.1214 60.6171 51.3788C58.8734 50.619 57.5402 49.5037 58.7471 47.3976C59.4227 46.218 60.1625 45.141 60.0812 43.6855C59.9663 41.6436 61.7493 41.1942 62.7656 41.8477C66.0358 43.9481 70.1357 42.7839 73.4576 45.3537C76.189 47.4675 79.9606 48.0875 83.5638 45.8884C85.6435 44.6198 87.8379 44.339 87.3834 48.0827C87.2073 49.5362 87.6944 51.123 88.7701 51.6931C91.7235 53.2578 94.2012 54.4642 89.997 57.5256C89.1156 58.1676 89.7711 59.3768 90.8679 59.6882C92.1752 60.0591 94.05 60.3168 94.2003 58.6476C94.3764 56.692 95.054 55.6303 96.5785 54.5025C99.0658 52.6628 98.6476 51.5398 95.453 51.5063C92.8576 51.4785 91.9685 48.786 90.0152 47.7138C92.2901 47.3037 93.1839 44.5719 95.6368 44.4032C96.9719 44.3112 98.2945 44.0219 99.62 43.8034C101.511 43.492 102.806 42.5491 103.084 40.5158C103.226 39.4848 103.151 38.5343 101.935 38.2919C100.2 37.9469 98.6744 36.914 97.1087 39.4293C94.898 42.9793 90.5176 40.008 87.4561 41.6341L86.6627 39.5308C87.1422 39.0211 87.1958 38.5123 86.6608 38.0035C87.0541 35.9587 85.5717 34.1152 86.5622 31.8222C88.2236 27.976 88.6409 27.5832 91.9905 29.7084C92.9896 30.3428 94.2682 31.0576 93.8778 32.2888C93.3543 33.935 91.9618 32.5399 90.9665 32.607C89.7309 32.6903 88.5414 32.8015 88.528 34.3537C88.5146 35.8811 89.641 36.1523 90.9158 36.1446C92.2585 36.1369 93.605 36.2692 94.9429 36.1973C97.4111 36.0651 98.8534 35.2267 96.8695 32.6673C96.0062 31.553 94.898 30.3226 96.3211 29.1977C97.8026 28.0259 98.8304 29.7286 99.5482 30.635C100.265 31.5405 102.779 31.5395 101.291 34.028C100.84 34.7821 103.226 35.2966 104.444 35.5975C105.027 35.7412 105.6 35.3848 105.746 34.7341C106.041 33.4128 105.412 32.5322 104.285 31.9334C104.106 31.8419 103.935 31.7375 103.773 31.621C96.6522 26.3816 96.7374 24.7383 104.383 20.2329C105.706 19.4514 107.139 18.875 108.634 18.5235C116.461 16.655 124.482 16.1156 132.425 15.1852C135.745 14.7962 139.262 15.9345 142.667 16.5142C143.961 16.7346 146.223 17.2692 146.254 17.7742C146.347 19.2422 144.31 19.1885 143.4 20.1256C142.884 20.6584 141.92 21.0378 142.434 21.9327C143.02 22.9532 144.319 23.0021 144.88 22.249C148.221 17.7675 152.881 18.901 157.464 18.6155C161.193 18.3836 164.96 17.8921 168.793 16.5717C173.014 15.1172 178.048 14.6956 182.79 14.3152C183.74 14.2395 184.962 14.7799 185.626 14.3564C191.363 10.7037 196.16 16.1395 201.515 15.8808C202.153 15.8502 202.645 16.3906 202.441 17.0316C202.287 17.5107 201.792 18.1987 201.402 18.2303C198.726 18.4497 196.037 18.5072 193.354 18.6519C192.8 18.6816 192.255 18.8637 191.706 18.9758C192.031 19.9158 192.865 19.5948 193.471 19.5938C199.203 19.5804 204.924 20.391 210.674 19.7011C212.07 19.5334 214.094 19.3341 214.369 21.4374C214.585 23.0922 212.828 23.4055 211.685 24.0331C207.578 26.2906 202.998 28.276 206.144 34.4371C206.538 35.2065 205.516 35.9175 205.534 36.5154C205.689 41.8286 201.05 45.9813 202.04 51.5206C202.319 53.0787 201.342 54.7037 199.76 55.1924C196.304 56.2598 193.616 59.3098 189.669 59.0635C189.296 59.0405 188.833 59.0664 188.544 59.2647C182.894 63.1339 175.37 64.9698 173.478 72.9505C172.759 75.9813 170.987 76.3598 168.283 75.5855C164 74.3591 161.882 71.0964 159.731 67.5741C157.502 63.9244 156.536 60.6205 159.949 57.1931C160.482 56.6584 160.445 55.9877 159.7 55.2892C157.997 53.6948 154.988 48.4707 154.536 46.7335C153.152 41.4041 147.851 37.053 142.6 38.4577C136.798 40.0099 134.71 36.1427 131.795 33.0822C130.611 31.8385 131.649 30.9685 132.72 30.4328C134.252 29.6653 136.057 29.6701 137.541 28.6094C138.744 27.7499 138.826 27.0159 138.212 25.7511C137.565 24.4164 136.773 24.8859 135.896 25.2375C130.681 27.3283 126.053 29.8895 124.341 35.9635C123.768 37.9997 122.162 39.6611 121.635 41.9934C121.183 43.9998 118.438 43.5428 116.587 43.8436C115.912 43.9538 114.744 43.3147 114.685 44.2499C114.641 44.9436 116.043 44.6121 116.644 44.958C120.803 47.3477 125.961 45.8932 130.113 48.9029C133.418 51.2993 137.314 52.5555 138.922 57.0609C139.707 59.2599 142.75 60.0552 145.041 61.0192C146.112 61.4695 147.665 61.8173 146.495 63.2038C145.579 64.2895 145.145 66.8929 142.695 65.5993C141.87 65.1633 141.256 64.3345 140.527 63.7059C140.104 63.3408 139.531 62.8531 139.061 63.2652C138.542 63.7193 139.048 64.2847 139.409 64.6957C139.916 65.2745 140.536 65.7641 140.986 66.3802C141.807 67.5051 143.958 68.5572 142.275 70.1066C141.005 71.2766 139.406 73.1594 137.255 72.1495C133.018 70.1612 129.223 66.959 124.033 67.8827C123.541 67.9699 123.058 67.3173 123.049 66.6897C123.039 65.9874 123.538 65.6999 124.163 65.6501C125.119 65.5734 126.131 65.7133 127.025 65.4469C129.478 64.7149 130.986 61.6784 130.112 59.4899C129.097 56.9478 122.945 53.9918 120.032 54.3262C117.968 54.5639 119.316 55.3773 119.176 56.256C118.783 58.732 120.753 62.6557 115.489 62.8675C113.62 62.9432 115.1 64.4849 115.853 65.1834C117.222 66.453 120.423 66.6533 120.048 68.5026C119.691 70.2657 116.57 67.7025 114.988 69.4982C114.33 70.2456 113.102 70.3232 112.315 69.6802C109.228 67.1583 107.363 69.776 105.392 71.3398C99.5271 75.9928 99.7693 78.5645 106.578 81.8492C108.117 82.5918 109.537 83.7091 111.185 84.1105C115.478 85.1578 119.136 86.7599 120.214 91.6773C120.405 92.5435 121.473 94.1131 122.764 92.9C123.474 92.2321 123.479 91.1187 122.93 90.3129C121.249 87.8408 121.567 86.2003 124.451 84.9365C125.738 84.3731 125.347 82.8888 124.808 81.8588C123.85 80.0287 124.218 78.0979 124.13 76.1978C123.906 71.3254 126.639 69.5422 131.021 71.8572C132.687 72.7378 134.604 73.7707 135.537 75.2741C137.103 77.797 138.334 79.105 141.364 77.224C143.333 76.0014 144.734 77.8785 145.371 79.4058C146.763 82.747 149.31 84.8991 151.902 87.2055C153.875 88.9618 156.998 90.539 155.139 94.298C154.538 95.512 155.895 95.7803 156.639 96.2824C157.931 97.1553 159.14 98.1221 159.427 99.7875C159.559 100.553 159.064 101.903 158.97 101.83C156.855 100.191 154.33 101.752 152.249 100.916C150.846 100.353 150.768 98.8638 151.293 97.4111C152.1 95.1795 150.931 95.237 149.27 95.649C148.165 95.9231 146.948 96.0984 145.839 95.9307C141.84 95.328 142.065 96.6887 143.281 99.8814C144.359 102.715 145.464 102.493 147.475 101.356C148.416 100.824 149.407 100.944 149.847 102.049C150.265 103.098 149.612 104.325 148.813 104.455C145.815 104.942 143.367 108.559 139.805 106.016C138.733 105.251 136.932 105.832 136.748 106.685C136.021 110.074 133.169 110.966 130.816 112.521C130.372 112.814 130.048 113.415 129.854 113.942C128.122 118.616 125.648 122.616 121.546 125.758C119.462 127.355 119.327 130.13 121.466 132.425C122.516 133.551 122.813 135.105 121.398 135.916C119.997 136.718 119.8 134.705 118.959 134.082C118.062 133.418 117.304 132.454 116.736 131.476C115.06 128.593 112.486 128.283 109.745 129.163C108.068 129.701 106.447 130.108 104.699 130.109C101.257 130.111 98.1854 129.941 98.9835 135.333C99.2812 137.345 96.4082 139.604 99.0362 142.172C100.95 144.041 102.68 144.929 105.094 143.42C105.909 142.911 106.67 142.314 107.494 141.82C108.695 141.101 110.188 140.549 111.332 141.259C113.088 142.349 111.368 143.72 110.904 144.666C109.411 147.714 109.705 149.293 113.527 149.262C115.565 149.245 116.703 150.61 116.75 152.616C116.794 154.496 115.998 156.86 118.399 157.586C120.903 158.343 124.083 158.6 126.037 157.036C130.244 153.67 134.389 154.383 138.912 155.802C140.128 156.184 141.391 156.364 142.663 156.447C150 156.932 154.038 163.869 160.773 165.508C163.07 173.466 171.279 172.236 176.563 175.541C177.933 176.397 179.692 176.837 181.173 177.752C184.03 179.519 184.818 181.787 182.65 184.45C180.482 187.112 179.922 190.232 178.999 193.385C177.482 198.568 176.548 204.555 169.106 205.026C167.1 205.154 166.058 207.043 165.465 209.06C163.084 217.155 162.223 218.009 153.488 221.387C152.811 221.65 152.615 221.918 152.837 222.541C154.209 226.387 151.578 227.434 148.794 227.695C146.192 227.939 146.059 230.106 145.026 231.516C143.17 234.053 142.737 237.507 139.969 239.521C139.797 239.647 139.99 240.761 140.321 241.015C142.11 242.39 141.317 243.276 140.179 244.708C136.404 249.46 136.472 249.721 139.862 254.665C140.404 255.455 141.451 256.043 139.75 256.616C135.153 258.164 130.836 256.024 129.095 251.441C127.736 247.867 127.655 243.961 128.605 240.62C130.587 233.643 130.298 226.392 131.982 219.317C133.271 213.9 134.311 207.874 134.398 201.977C134.452 198.287 132.982 195.446 130.063 193.719C126.832 191.806 125.021 189.119 123.804 185.771C123.481 184.882 122.9 184.089 122.491 183.226C121.413 180.951 117.127 180.199 119.587 176.169C120.917 173.99 120.332 170.82 122.783 169.018C124.361 167.859 124.442 166.173 124.532 164.38C124.63 162.464 124.169 161.675 122.064 161.47C118.258 161.1 114.268 160.689 113.33 155.71C113.127 154.628 111.833 154.51 110.976 154.336C106.555 153.436 103.067 150.498 97.9566 150.311C93.6433 150.154 87.8303 147.962 85.6416 142.21C84.675 139.67 83.5935 137.824 79.5941 138.634C76.3229 139.297 74.2002 135.178 73.0901 132.193C71.3588 127.541 68.8906 123.969 64.8931 120.766C60.5721 117.304 59.3854 111.616 59.4945 106.089C59.5691 102.311 59.8553 98.7363 55.7975 96.681C54.9333 96.2431 54.5792 95.5388 54.4596 94.4082C53.9839 89.9239 53.6164 89.6728 48.86 89.2943C47.3297 89.1726 47.39 87.8714 46.8272 86.9228C43.3676 81.0951 38.9738 76.7804 31.6324 75.9861C28.9719 75.6976 27.3382 77.0717 25.2146 77.4827C22.9608 77.9187 20.2782 76.8666 21.7597 81.0606C22.1971 82.3005 20.2572 84.1776 18.6704 83.664C15.7697 82.724 14.3877 84.2801 12.9005 86.1256C12.5464 86.5654 12.0946 87.2429 11.6669 87.2591C6.41084 87.4594 2.06592 90.9491 -3.12406 91.3295L-3.46094 90.3301ZM105.802 47.3113C104.86 47.4704 103.918 47.6563 103.264 48.441C102.519 49.336 102.799 50.275 103.422 51.0243C105.44 53.4495 106.939 56.4543 110.508 57.1768C111.201 57.3167 110.328 59.4276 111.822 59.0587C112.551 58.8795 113.303 57.7968 113.567 56.9698C113.907 55.9034 112.938 55.1598 112.035 54.9366C108.939 54.1719 107.846 51.9767 107.514 49.106C107.4 48.1258 107.101 47.2136 105.802 47.3113Z" fill="white"/>
<path d="M427.407 189.925C427.357 187.098 427.463 184.678 424.431 183.945C424.062 183.856 423.387 183.655 423.397 183.568C424.069 177.723 418.923 178.665 415.936 177.081C415.276 176.731 414.721 176.135 414.201 175.574C413.272 174.571 412.192 173.339 413.264 172.049C414.521 170.537 416.53 171.041 417.203 172.401C418.61 175.247 420.356 174.401 422.772 174.188C428.12 173.713 432.411 176.581 435.326 180.807C436.458 182.448 439.638 184.287 438.653 185.376C437.082 187.11 435.062 184.46 433.278 183.559C431.842 182.834 430.591 183.195 429.644 184.295C428.587 185.523 429.289 186.74 429.889 188.017C432.81 194.24 437.107 199.523 441.21 204.943C445.028 209.987 445.243 212.772 442.18 218.268C441.615 219.283 441.035 220.292 440.553 221.349C436.856 229.471 430.728 230.473 424.444 224.513C421.47 221.693 417.888 219.484 414.444 217.208C412.297 215.787 410.096 216.469 407.928 217.676C404.403 219.64 400.71 221.035 396.583 221.445C392.073 221.891 392.02 222.147 391.386 217.577C390.84 213.648 388.494 210.219 389.037 205.887C389.471 202.429 390.771 200.712 393.965 199.804C396.604 199.054 399.078 198.573 400.357 194.983C401.066 192.993 404.807 190.996 407.919 191.143C409.732 191.228 410.747 190.947 411.655 189.403C413.078 186.98 415.525 187.25 417.843 187.424C419.351 187.537 420.616 188.227 420.245 189.939C419.408 193.8 421.888 195.089 424.722 194.933C427.977 194.754 427.099 191.6 427.407 189.925ZM252.325 25.9829C250.471 26.4409 247.948 24.4593 246.771 27.3061C245.562 30.2295 248.925 30.9923 249.742 32.992C250.198 34.1054 251.177 34.733 252.081 35.4526C253.712 36.75 255.44 36.9493 256.494 35.0904C258.117 32.2254 259.879 32.1756 262.25 34.0221C262.864 34.5002 263.723 34.3967 264.372 33.8592C264.858 33.4577 265.124 32.7208 264.639 32.3586C259.536 28.545 264.102 29.1918 266.294 28.5949C267.182 28.3525 267.991 27.7517 268.779 27.2285C269.224 26.9343 269.843 26.4782 269.863 26.071C269.893 25.4597 269.132 25.3734 268.6 25.338C265.928 25.1617 263.419 23.8557 260.392 24.2907C257.656 23.7158 255.092 25.2987 252.325 25.9829ZM82.678 36.1262C81.7832 35.124 80.4032 34.8863 79.8529 36.2364C77.7072 41.4988 75.0945 37.5108 73.4656 36.2623C69.1217 32.9345 67.2516 32.7553 63.5642 36.3294C61.966 37.8788 61.8655 38.8504 64.2581 39.3295C67.4469 39.9676 70.4443 40.8856 73.3288 42.6026C76.8229 44.6829 83.8552 42.7626 86.6535 39.5326C87.133 39.0228 87.1866 38.514 86.6516 38.0052C84.9644 38.1451 83.7671 37.346 82.678 36.1262ZM382.5 169.513C382.293 169.66 382.257 170.257 382.35 170.587C383.09 173.195 383.875 175.812 386.984 176.564C389.673 177.215 391.64 176.485 393.35 174.056C395.49 171.012 394.517 167.4 395.742 164.208C396.195 163.03 394.686 162.405 392.701 162.392C389.614 164.532 386.039 166.997 382.5 169.513ZM300.116 188.82C297.72 190.506 294.399 191.824 293.168 194.388C291.751 197.342 291.24 200.916 291.445 204.374C291.517 205.589 292.156 206.558 293.47 206.792C295.061 207.076 296.95 206.971 297.404 205.338C298.665 200.816 301.107 196.667 301.729 192.238C301.194 190.734 301.695 187.709 300.116 188.82ZM312.049 53.1456C308.088 48.7417 308.092 47.8133 312.586 44.0792C315.237 41.8763 318.129 40.0433 321.576 39.2288C323.048 38.881 324.485 38.3195 325.865 37.6929C326.233 37.5261 326.531 36.751 326.507 36.2738C326.46 35.3702 325.71 34.9017 324.895 35.1019C317.471 36.9196 310.043 38.7469 305.234 45.5299C303.311 48.2416 303.972 51.1899 306.914 52.6569C308.527 53.4608 310.275 53.204 311.985 53.2241L312.049 53.1456ZM468.377 238.895C469.762 235.55 472.284 233.454 475.088 231.369C478.491 228.838 478.247 227.01 474.736 224.224C473.994 223.636 473.25 222.671 472.29 223.11C471.131 223.64 471.869 224.75 472.022 225.633C472.464 228.184 472.122 229.927 469.324 231.408C466.948 232.666 465.258 235.344 463.474 237.562C462.069 239.31 462.828 241.159 465.014 241.286C466.514 241.306 467.804 240.28 468.377 238.895ZM427.368 111.864C426.597 111.42 425.786 111.576 425.382 112.303C422.935 116.717 418.853 118.872 414.407 120.689C412.59 121.432 411.324 122.963 411.417 125.169C411.454 126.022 411.927 126.774 412.818 126.377C416.882 124.57 421.075 122.946 424.861 120.659C427.139 119.283 427.91 116.385 428.438 114.137C428.499 112.865 428.066 112.266 427.368 111.864ZM365.421 22.8764C362.666 21.076 360.967 22.7902 359.938 24.9221C358.866 27.1394 359.648 29.096 362.245 29.8415C364.272 30.4231 366.332 30.8888 368.377 31.4062C369.564 30.4509 370.25 29.1449 370.89 27.8063C369.626 25.5402 367.502 24.2361 365.421 22.8764ZM421.889 39.1857C420.755 41.1778 423.177 41.4815 424.035 42.5356C424.395 42.9782 424.8 43.3903 425.107 43.8665C425.969 45.2032 427.006 46.604 428.726 46.0406C430.853 45.344 428.224 43.763 429.054 42.6802C429.51 42.0842 429.896 41.4288 430.381 40.8587C431.528 39.5086 430.77 38.7699 429.507 38.4221C428.422 38.1231 427.255 38.1193 426.499 38.0302C424.622 38.1911 422.721 37.7245 421.889 39.1857ZM400.28 155.933C402.142 157.543 403.833 156.263 404.775 155.125C405.793 153.893 404.669 152.464 403.179 152.168C400.482 151.632 400.32 150.312 401.256 148.051C401.653 147.092 400.518 146.269 399.609 146.023C398.396 145.693 397.962 146.79 397.659 147.675C397.416 148.386 397.444 149.191 397.351 149.953C397.162 152.529 398.442 154.343 400.28 155.933ZM395.749 174.51C395.89 176.219 396.133 178.666 397.987 179.092C398.988 179.322 401.548 178.417 401.38 176.164C401.258 174.514 400.869 172.688 398.563 172.446C397.188 172.513 395.623 172.981 395.749 174.51Z" fill="white"/>
</g>
<defs>
<clipPath id="clip0_2245_10917">
<rect width="490" height="275" fill="white"/>
</clipPath>
</defs>
</svg>
