<svg width="16" height="13" viewBox="0 0 16 13" fill="none" xmlns="http://www.w3.org/2000/svg">
<path d="M7.52825 2.5741L-0.0142221 6.92837C-0.534181 7.22855 -0.534181 7.71677 -0.0142221 8.01694L6.58544 11.8269C7.1054 12.1271 7.9511 12.1271 8.47106 11.8269L16.0135 7.47266C16.5335 7.17248 16.5335 6.68426 16.0135 6.38409L9.41387 2.5741C8.89391 2.27393 8.04821 2.27393 7.52825 2.5741ZM7.52825 11.2826L0.928587 7.47266L8.47106 3.11839L15.0712 6.9281L7.52825 11.2826Z" fill="#041925"/>
<path d="M7.52825 0.54383L-0.0142221 4.8981C-0.534181 5.19827 -0.534181 5.68649 -0.0142221 5.98667L6.58544 9.79665C7.1054 10.0968 7.9511 10.0968 8.47106 9.79665L16.0135 5.44238C16.5335 5.14221 16.5335 4.65399 16.0135 4.35382L9.41387 0.54383C8.89391 0.243657 8.04821 0.243657 7.52825 0.54383ZM7.52825 9.25237L0.928587 5.44238L8.47106 1.08811L15.0712 4.89783L7.52825 9.25237Z" fill="#041925"/>
</svg>
