<svg width="501" height="501" viewBox="0 0 501 501" fill="none" xmlns="http://www.w3.org/2000/svg">
<circle opacity="0.1" cx="250.5" cy="250.5" r="193.5" fill="#2471B5" stroke="#2471B5" stroke-width="2"/>
<circle opacity="0.1" cx="250.5" cy="250.5" r="249.5" stroke="#2471B5" stroke-width="2"/>
<g filter="url(#filter0_d_1096_24801)">
<circle cx="248.303" cy="250.779" r="146.334" fill="#2471B5"/>
</g>
<g clip-path="url(#clip0_1096_24801)">
<path d="M334.916 191.219C337.102 191.663 339.205 191.857 339.554 194.988C339.732 196.582 341.881 196.745 343.467 196.788C346.312 196.866 347.056 197.326 346.887 199.866C346.75 201.918 347.412 202.525 349.328 202.693C351.85 202.916 354.213 203.636 356.867 202.614C359.256 201.695 360.622 202.908 361.756 205.788C361.997 206.398 362.341 207.212 363.053 206.772C366.299 204.767 370.174 206.329 373.652 204.56C375.961 203.384 379.253 203.917 381.57 206.147C382.691 207.225 384.02 207.743 385.411 206.795C386.886 205.79 388.107 206.715 388.866 207.497C391.276 209.979 393.998 209.241 396.764 208.713C397.134 208.642 397.492 208.509 397.856 208.405C399.358 207.974 397.95 211.426 399.634 209.954C400.526 209.175 401.151 209.012 402.16 208.889C406.757 208.329 410.147 210.94 413.672 213.254L411.986 217.22C411.864 217.189 411.741 217.16 411.618 217.134C410.618 216.925 409.705 215.174 409.404 215.653C408.78 216.642 407.526 217.487 407.689 218.871C407.898 220.646 407.022 221.065 405.451 221.14C404.053 221.207 402.625 221.455 401.542 222.561C400.66 223.464 399.615 223.482 398.364 223.434C395.133 223.309 393.393 224.845 392.989 228.125C392.574 231.489 389.437 232.696 387.777 235.065C387.241 235.831 386.76 234.839 386.472 234.328C385.155 231.992 385.971 229.82 387.146 227.77C387.714 226.778 388.627 225.99 389.348 225.08C389.786 224.528 390.924 224.173 390.405 223.315C389.947 222.556 388.893 222.35 387.979 222.374C386.838 222.404 386.066 223.188 385.54 224.077C384.623 225.627 383.543 225.399 381.955 225.114C377.815 224.371 373.528 223.936 370.644 228.097C369.881 229.198 367.518 229.359 368.239 231.147C368.917 232.83 371.004 231.717 372.419 232.153C373.464 232.475 374.872 232.114 374.919 233.522C374.969 235.04 376.512 236.74 374.791 238.092C374.257 238.512 373.774 238.768 373.702 239.482C373.665 239.843 373.677 240.388 373.237 240.387C372.821 240.385 372.867 239.847 372.824 239.501C372.792 239.245 372.814 238.984 372.784 238.728C372.702 238.009 373.019 237.23 372.461 236.583C372.267 237.311 372.2 238.107 371.856 238.755C370.215 241.848 368.467 244.77 364.633 245.702C361.121 246.554 360.772 247.274 361.616 250.826C361.924 252.121 361.931 253.223 360.545 253.681C359.204 254.124 358.786 252.877 358.324 252.014C357.967 251.349 357.767 250.566 357.651 249.813C357.481 248.71 356.869 248.61 356.01 248.926C355.342 249.172 354.632 250.006 354.022 249.018C353.602 248.337 353.334 247.886 352.726 248.741C352.362 249.252 351.79 249.883 351.861 250.381C352.015 251.465 352.818 250.588 353.341 250.639C354.833 250.785 356.24 250.963 354.278 252.725C353.389 253.524 353.655 254.569 353.859 255.612C354.901 260.939 352.62 264.874 347.571 266.679C346.309 267.131 344.733 267.054 344.189 268.835C343.842 269.969 343.323 269.873 342.819 268.737C342.21 267.363 341.298 268.243 340.614 268.722C339.686 269.373 339.67 270.188 340.532 270.97C340.914 271.317 341.323 271.637 341.681 272.007C344.119 274.534 343.26 278.072 339.943 279.392C339.028 279.756 338.888 279.131 338.522 278.61C337.525 277.196 335.806 275.526 334.527 276.684C332.877 278.179 334.622 279.955 335.935 281.213C336.901 282.139 338.039 283.253 337.794 284.455C337.232 287.205 339.665 288.877 339.82 291.313C339.89 292.412 340.946 292.576 341.826 292.82C344.405 293.536 346.806 295.016 349.657 294.571C350.147 294.494 350.867 294.691 350.903 295.219C350.954 295.968 350.178 295.752 349.724 295.793C346.472 296.086 343.144 295.537 340.219 294.601C337.965 293.88 336.057 291.284 334.592 289.117C333.375 287.312 332.041 285.59 330.599 283.961C330.176 283.485 329.387 283.184 329.897 282.464C330.473 281.653 331.312 281.972 331.909 282.498C332.775 283.261 333.531 284.15 334.343 284.975C334.613 285.249 334.998 285.548 335.324 285.273C335.706 284.95 335.297 284.6 335.097 284.32C332.981 281.355 332.187 278.066 332.478 274.442C332.586 273.091 332.366 271.739 330.363 272.172C328.64 272.544 328.686 270.898 328.087 270.05C325.576 266.493 324.643 266.401 321.418 269.286C320.677 269.948 319.865 270.53 319.055 271.106C316.268 273.085 315.534 276.018 316.965 279.274C317.259 279.942 317.977 280.68 317.184 281.356C316.452 281.979 315.836 281.191 315.139 280.953C311.924 279.852 310.713 277.171 310.271 274.285C309.613 269.987 306.381 267.502 304.071 264.353C303.479 263.545 302.593 263.374 301.665 263.358C300.504 263.337 299.334 263.235 298.186 263.347C297.47 263.417 296.79 263.313 296.119 263.166C294.974 262.915 294.296 264.387 295.229 265.096C295.674 265.434 296.157 265.741 296.569 266.107C297.311 266.766 296.547 267.166 296.332 267.724C294.969 271.26 291.572 272.17 288.653 273.513C286.827 274.352 285.098 275.621 282.963 275.747C282.567 275.77 282.172 275.979 282.172 276.432C282.172 277.044 282.656 277.339 283.17 277.386C284.478 277.504 285.63 276.79 286.881 276.59C288.623 276.313 289.463 277.496 288.687 279.081C287.154 282.211 285.184 285.097 282.361 287.298C278.039 290.667 277.628 292.044 279.248 297.091C280.518 301.046 280.37 301.643 276.925 304.259C275.61 305.258 274.484 306.173 275.137 308.063C275.396 308.81 275.459 309.832 274.841 310.259C272.37 311.968 271.561 314.811 270.009 317.122C267.515 320.839 263.692 320.66 260.014 320.94C258.861 321.028 257.992 319.884 257.875 318.989C257.454 315.77 255.86 312.84 254.755 310C253.054 305.631 251.778 301.865 253.482 297.258C253.971 295.936 253.327 293.752 252.458 292.467C251.002 290.315 250.309 288.147 250.377 285.616C250.398 284.809 249.96 283.805 249.148 283.923C246.934 284.245 245.138 282.203 243.283 282.621C241.201 283.09 238.922 282.68 237.009 283.871C235.725 284.672 234.588 284.35 233.418 283.58C230.48 281.647 228.816 278.485 226.252 276.191C225.984 275.95 225.821 275.477 225.886 275.122C226.767 270.236 225.081 264.617 229.686 260.784C231.925 258.92 232.809 256.064 234.962 254.154C235.867 253.352 235.909 252.266 234.534 251.729C233.617 251.371 232.662 250.855 232.96 249.864C233.457 248.213 232.5 246.473 233.336 244.962C234.086 243.606 235.544 243.852 236.82 243.92C240.624 244.123 240.972 243.831 240.296 239.947C240.01 238.301 240.401 237.534 241.805 236.517C243.434 235.336 244.99 233.964 246.646 232.793C249.309 230.909 249.61 230.177 247.708 227.315C247.113 226.42 246.726 225.544 246.492 224.536C245.839 221.727 246.279 220.518 248.927 219.272C250.775 218.403 252.161 217.266 252.973 215.366C254.385 212.064 257.105 210.193 260.324 208.952C261.646 208.443 263.026 208.087 264.356 207.599C266.726 206.728 268.751 206.325 270.9 208.602C272.314 210.1 275.012 209.869 276.885 211.085C277.521 211.498 278.51 211.569 278.908 212.113C280.467 214.237 281.61 215.336 282.495 211.662C282.698 210.819 284.044 210.537 284.771 211.403C285.874 212.719 286.867 212.411 288.119 211.687C290.22 210.473 292.656 211.088 294.917 210.647C297.318 210.179 295.743 209.143 295.434 208.25L295.477 208.197C297.365 208.584 299.245 209.025 301.145 209.336C302.151 209.5 302.86 209.525 303.172 207.948C303.85 204.526 305.385 203.88 309.138 204.234C310.481 204.361 311.779 204.129 313.14 204.731C313.926 205.078 315.335 204.925 315.553 203.528C315.857 201.579 316.852 201.83 318.318 202.26C319.674 202.657 321.525 203.338 321.506 200.597C321.5 199.879 322.387 199.748 323.01 199.612C325.745 199.015 328.297 197.757 331.246 197.889C333.955 198.01 334.685 196.21 333.23 193.625C334.028 192.992 334.487 192.116 334.916 191.219ZM248.132 244.591C245.277 245.096 243.34 246.82 242.177 249.305C241.608 250.519 241.113 251.609 239.857 252.207C239.438 252.406 238.589 252.291 238.691 252.839C238.771 253.265 239.628 253.176 240.088 253.015C242.389 252.212 244.68 251.46 247.147 251.245C248.494 251.128 249.704 251.322 250.878 251.86C252.033 252.389 251.885 253.482 251.948 254.52C251.998 255.326 252.629 255.999 253.435 256.041C256.019 256.174 258.481 258.367 261.218 256.455C261.64 256.161 262.558 256.222 263.072 256.474C265.919 257.873 268.964 256.902 271.889 257.305C273.322 257.502 273.832 256.098 274.106 255.056C274.442 253.782 273.409 253.756 272.418 253.688C271.56 253.628 270.669 252.909 269.889 253.042C267.203 253.502 266.02 252.385 265.85 249.803C265.816 249.282 265.5 248.785 264.853 248.874C264.417 248.935 264.455 249.413 264.29 249.73C263.339 251.563 260.876 251.878 259.699 250.318C259.342 249.846 259.31 248.592 258.791 248.852C256.117 250.196 254.934 247.71 253.152 246.847C251.982 246.28 251.255 246.072 251.138 247.772C251.075 248.677 250.57 249.819 249.551 249.519C248.086 249.087 249.386 248.071 249.449 247.303C249.546 246.153 250.377 244.622 248.132 244.591ZM258.336 230.502C260.118 230.596 259.971 230.502 260.695 229.359C262.395 226.676 261.721 224.023 260.833 221.35C260.584 220.598 260.683 219.209 259.307 219.7C258.259 220.074 257.603 221.296 258.282 222.22C260.578 225.346 257.557 226.855 256.322 228.746C255.549 229.928 253.997 231.127 252.686 228.894C252.494 228.567 252.052 228.303 251.742 228.611C251.519 228.832 251.431 229.335 251.493 229.673C251.902 231.892 253.647 231.419 255.139 231.423C256.29 231.426 257.02 229.941 258.336 230.502ZM279.545 246.109C279.001 243.986 275.994 244.17 275.549 241.735C275.448 241.179 274.69 242.588 274.15 242.996C273.296 243.643 272.433 243.836 271.904 242.773C271.471 241.902 271.005 241.38 270.252 242.174C269.392 243.082 268.372 244.02 268.538 245.486C268.643 246.418 269.359 246.949 270.145 246.778C272.613 246.24 274.9 246.585 277.23 247.504C278.206 247.888 279.275 247.427 279.545 246.109ZM277.112 266.256C276.304 266.43 276.273 267.018 276.23 267.661C276.106 269.535 277.452 270.625 278.442 271.901C278.891 272.479 279.352 273.514 280.094 273.197C281.165 272.74 280.49 271.687 280.288 270.892C279.903 269.381 278.791 268.277 278.012 266.987C277.833 266.69 277.447 266.52 277.112 266.256ZM84.0078 233.127C87.2336 231.146 90.4998 229.252 94.1104 228.032C94.571 227.876 95.2111 227.591 95.1611 227.033C95.1034 226.388 94.3253 226.668 93.9173 226.428C92.2554 225.45 90.5325 224.556 88.9571 223.452C87.011 222.088 87.1015 220.959 89.1053 219.737C89.5376 219.473 90.0463 219.336 90.5171 219.133C91.0565 218.9 92.1547 219.061 91.9392 218.264C91.7499 217.564 90.8115 218.225 90.2079 218.191C89.7005 218.163 89.1553 218.192 88.698 218.013C87.816 217.667 87.038 217.009 87.1957 216.005C87.3965 214.726 88.5306 214.627 89.5934 214.615C90.0668 214.609 90.7454 215.165 90.9558 214.571C91.1515 214.02 90.3407 213.932 89.9321 213.667C86.8795 211.682 86.8911 211.197 89.9661 209.41C90.7442 208.958 91.4728 208.402 92.2894 208.04C94.6107 207.013 96.7923 206.391 99.5318 207.355C102.501 208.401 105.84 208.34 108.972 208.986C112.858 209.789 116.548 209.807 120.511 208.799C124.317 207.83 128.397 208.551 132.215 209.895C132.673 210.056 133.262 210.462 133.618 209.929C133.941 209.447 133.547 208.924 133.115 208.633C132.471 208.199 131.881 207.835 131.718 206.936C131.532 205.917 130.931 205.69 130.146 206.534C129.216 207.536 128.097 207.518 126.955 207.02C125.786 206.511 124.893 205.763 125.702 204.352C126.155 203.561 126.65 202.839 126.596 201.864C126.519 200.495 127.714 200.194 128.395 200.632C130.587 202.04 133.335 201.259 135.561 202.982C137.392 204.398 139.92 204.814 142.335 203.34C143.729 202.49 145.199 202.302 144.895 204.811C144.777 205.785 145.103 206.849 145.824 207.231C147.804 208.279 149.464 209.088 146.647 211.14C146.056 211.57 146.495 212.381 147.23 212.589C148.106 212.838 149.363 213.011 149.464 211.892C149.582 210.581 150.036 209.869 151.058 209.114C152.725 207.881 152.444 207.128 150.303 207.105C148.564 207.087 147.968 205.282 146.659 204.564C148.183 204.289 148.782 202.458 150.426 202.345C151.321 202.283 152.208 202.089 153.096 201.943C154.364 201.734 155.231 201.102 155.418 199.739C155.513 199.048 155.463 198.411 154.648 198.249C153.485 198.017 152.462 197.325 151.413 199.011C149.931 201.39 146.995 199.399 144.944 200.489L144.412 199.079C144.733 198.737 144.769 198.396 144.41 198.055C144.674 196.685 143.681 195.449 144.344 193.912C145.458 191.335 145.738 191.071 147.983 192.496C148.652 192.921 149.509 193.4 149.248 194.225C148.897 195.329 147.963 194.394 147.296 194.438C146.468 194.494 145.671 194.569 145.662 195.609C145.653 196.633 146.408 196.815 147.262 196.81C148.162 196.804 149.065 196.893 149.961 196.845C151.616 196.756 152.582 196.194 151.253 194.479C150.674 193.732 149.931 192.907 150.885 192.153C151.878 191.368 152.567 192.509 153.048 193.117C153.528 193.724 155.214 193.723 154.216 195.391C153.914 195.896 155.513 196.241 156.33 196.443C156.72 196.539 157.104 196.3 157.202 195.864C157.4 194.979 156.978 194.388 156.222 193.987C156.103 193.926 155.988 193.856 155.879 193.778C151.107 190.266 151.164 189.165 156.289 186.145C157.175 185.621 158.136 185.235 159.138 184.999C164.383 183.747 169.759 183.385 175.083 182.762C177.308 182.501 179.666 183.264 181.948 183.653C182.815 183.8 184.331 184.159 184.352 184.497C184.414 185.481 183.049 185.445 182.439 186.073C182.093 186.43 181.447 186.684 181.791 187.284C182.185 187.968 183.055 188.001 183.431 187.496C185.67 184.493 188.793 185.252 191.865 185.061C194.365 184.905 196.889 184.576 199.458 183.691C202.287 182.716 205.661 182.434 208.839 182.179C209.476 182.128 210.295 182.49 210.741 182.206C214.585 179.758 217.8 183.401 221.39 183.228C221.818 183.207 222.147 183.57 222.01 183.999C221.907 184.32 221.575 184.782 221.314 184.803C219.521 184.95 217.718 184.988 215.92 185.085C215.549 185.105 215.183 185.227 214.815 185.302C215.033 185.932 215.592 185.717 215.998 185.717C219.84 185.708 223.675 186.251 227.528 185.789C228.464 185.676 229.821 185.543 230.005 186.952C230.15 188.061 228.972 188.271 228.206 188.692C225.453 190.205 222.383 191.536 224.492 195.665C224.756 196.181 224.072 196.657 224.083 197.058C224.187 200.619 221.078 203.402 221.742 207.115C221.929 208.159 221.274 209.248 220.213 209.576C217.897 210.291 216.095 212.336 213.45 212.171C213.2 212.155 212.89 212.172 212.696 212.305C208.909 214.899 203.866 216.129 202.598 221.478C202.117 223.509 200.929 223.763 199.117 223.244C196.246 222.422 194.827 220.235 193.385 217.875C191.891 215.428 191.243 213.214 193.531 210.917C193.888 210.559 193.863 210.109 193.364 209.641C192.222 208.572 190.206 205.071 189.903 203.907C188.975 200.335 185.423 197.418 181.903 198.36C178.014 199.4 176.614 196.808 174.661 194.757C173.867 193.923 174.563 193.34 175.281 192.981C176.308 192.467 177.518 192.47 178.512 191.759C179.319 191.183 179.373 190.691 178.962 189.843C178.528 188.949 177.997 189.264 177.41 189.499C173.915 190.901 170.813 192.617 169.665 196.688C169.281 198.053 168.204 199.166 167.852 200.73C167.548 202.074 165.709 201.768 164.468 201.97C164.016 202.044 163.233 201.615 163.193 202.242C163.163 202.707 164.103 202.485 164.506 202.717C167.294 204.318 170.751 203.343 173.534 205.361C175.749 206.967 178.36 207.809 179.438 210.828C179.964 212.302 182.003 212.835 183.539 213.481C184.256 213.783 185.297 214.016 184.514 214.946C183.9 215.673 183.609 217.418 181.966 216.551C181.414 216.259 181.002 215.703 180.514 215.282C180.23 215.037 179.846 214.71 179.531 214.987C179.183 215.291 179.522 215.67 179.764 215.945C180.104 216.333 180.519 216.662 180.821 217.074C181.371 217.828 182.813 218.534 181.685 219.572C180.834 220.356 179.762 221.618 178.321 220.941C175.481 219.609 172.937 217.462 169.459 218.081C169.129 218.14 168.805 217.703 168.799 217.282C168.792 216.811 169.127 216.618 169.546 216.585C170.187 216.534 170.865 216.627 171.464 216.449C173.108 215.958 174.119 213.923 173.533 212.456C172.852 210.753 168.729 208.771 166.777 208.995C165.394 209.155 166.297 209.7 166.203 210.289C165.94 211.948 167.26 214.578 163.732 214.72C162.48 214.771 163.471 215.804 163.976 216.272C164.893 217.123 167.039 217.257 166.788 218.497C166.548 219.679 164.457 217.961 163.396 219.164C162.955 219.665 162.132 219.717 161.605 219.286C159.536 217.596 158.286 219.35 156.965 220.399C153.034 223.517 153.196 225.241 157.759 227.442C158.791 227.94 159.743 228.689 160.847 228.958C163.725 229.66 166.176 230.734 166.899 234.029C167.027 234.61 167.743 235.662 168.608 234.849C169.084 234.401 169.087 233.655 168.72 233.115C167.593 231.458 167.806 230.359 169.739 229.512C170.602 229.134 170.339 228.139 169.978 227.449C169.336 226.222 169.582 224.928 169.523 223.655C169.373 220.389 171.205 219.194 174.142 220.745C175.259 221.336 176.544 222.028 177.169 223.035C178.219 224.726 179.043 225.603 181.074 224.342C182.394 223.523 183.333 224.781 183.76 225.805C184.693 228.044 186.4 229.486 188.137 231.032C189.46 232.209 191.553 233.267 190.307 235.786C189.904 236.6 190.814 236.779 191.312 237.116C192.178 237.701 192.988 238.349 193.181 239.465C193.269 239.978 192.938 240.883 192.875 240.834C191.457 239.735 189.764 240.782 188.37 240.222C187.43 239.844 187.377 238.846 187.729 237.872C188.27 236.377 187.487 236.415 186.373 236.691C185.633 236.875 184.817 236.993 184.074 236.88C181.394 236.476 181.544 237.388 182.359 239.528C183.082 241.427 183.822 241.279 185.17 240.516C185.801 240.16 186.465 240.24 186.76 240.981C187.04 241.684 186.603 242.507 186.067 242.593C184.058 242.92 182.417 245.344 180.029 243.639C179.311 243.127 178.104 243.516 177.981 244.088C177.493 246.359 175.582 246.957 174.005 247.999C173.707 248.196 173.49 248.599 173.36 248.952C172.199 252.085 170.541 254.766 167.792 256.872C166.395 257.942 166.305 259.802 167.738 261.34C168.442 262.095 168.641 263.136 167.693 263.68C166.754 264.217 166.621 262.868 166.058 262.45C165.457 262.005 164.949 261.359 164.568 260.704C163.444 258.772 161.72 258.564 159.883 259.153C158.758 259.514 157.672 259.787 156.5 259.788C154.194 259.789 152.135 259.675 152.67 263.289C152.869 264.637 150.943 266.152 152.705 267.873C153.988 269.126 155.147 269.72 156.765 268.709C157.311 268.368 157.822 267.968 158.374 267.637C159.178 267.155 160.179 266.785 160.946 267.261C162.123 267.991 160.97 268.91 160.659 269.544C159.659 271.587 159.856 272.646 162.417 272.624C163.783 272.613 164.546 273.528 164.577 274.873C164.607 276.133 164.073 277.717 165.682 278.204C167.361 278.711 169.492 278.883 170.802 277.835C173.621 275.579 176.399 276.057 179.431 277.008C180.246 277.264 181.093 277.384 181.945 277.44C186.863 277.765 189.569 282.415 194.083 283.513C195.623 288.847 201.124 288.023 204.666 290.238C205.584 290.812 206.763 291.107 207.756 291.72C209.671 292.904 210.199 294.424 208.746 296.209C207.293 297.993 206.917 300.084 206.299 302.198C205.282 305.671 204.656 309.684 199.668 310C198.324 310.085 197.625 311.352 197.228 312.703C195.632 318.129 195.055 318.701 189.201 320.965C188.746 321.141 188.615 321.321 188.764 321.739C189.684 324.317 187.92 325.018 186.054 325.193C184.31 325.357 184.221 326.809 183.529 327.754C182.285 329.454 181.995 331.769 180.14 333.119C180.024 333.203 180.154 333.95 180.375 334.121C181.575 335.042 181.043 335.636 180.28 336.596C177.75 339.781 177.796 339.956 180.068 343.269C180.431 343.799 181.133 344.193 179.993 344.577C176.911 345.615 174.018 344.18 172.851 341.108C171.94 338.713 171.886 336.095 172.523 333.856C173.851 329.179 173.657 324.32 174.786 319.578C175.65 315.947 176.348 311.908 176.405 307.956C176.442 305.483 175.457 303.579 173.5 302.421C171.335 301.139 170.121 299.338 169.305 297.095C169.088 296.499 168.699 295.967 168.425 295.389C167.702 293.864 164.83 293.359 166.478 290.659C167.37 289.199 166.978 287.073 168.621 285.866C169.679 285.089 169.732 283.959 169.793 282.757C169.859 281.473 169.55 280.944 168.139 280.807C165.588 280.559 162.914 280.283 162.285 276.946C162.149 276.221 161.281 276.142 160.707 276.026C157.744 275.422 155.407 273.453 151.981 273.328C149.09 273.222 145.194 271.754 143.727 267.898C143.079 266.196 142.355 264.958 139.674 265.502C137.482 265.946 136.059 263.185 135.315 261.185C134.155 258.067 132.5 255.673 129.821 253.526C126.925 251.205 126.13 247.393 126.203 243.688C126.253 241.157 126.445 238.761 123.725 237.383C123.146 237.09 122.908 236.618 122.828 235.86C122.509 232.854 122.263 232.686 119.075 232.432C118.049 232.351 118.09 231.479 117.713 230.843C115.394 226.937 112.449 224.045 107.529 223.513C105.745 223.319 104.65 224.24 103.227 224.516C101.717 224.808 99.9186 224.103 100.912 226.914C101.205 227.745 99.9045 229.003 98.841 228.659C96.8968 228.029 95.9706 229.072 94.9738 230.308C94.7365 230.603 94.4337 231.057 94.147 231.068C90.6242 231.202 87.7121 233.541 84.2336 233.796L84.0078 233.127ZM157.24 204.294C156.608 204.4 155.977 204.525 155.539 205.051C155.039 205.651 155.227 206.28 155.645 206.782C156.997 208.408 158.002 210.422 160.394 210.906C160.858 211 160.273 212.415 161.274 212.167C161.763 212.047 162.267 211.322 162.444 210.767C162.672 210.053 162.022 209.554 161.417 209.405C159.342 208.892 158.609 207.421 158.387 205.497C158.31 204.84 158.11 204.228 157.24 204.294Z" fill="white"/>
<path d="M372.792 299.877C372.758 297.983 372.83 296.36 370.798 295.869C370.55 295.809 370.098 295.674 370.105 295.617C370.555 291.699 367.106 292.33 365.104 291.269C364.662 291.034 364.29 290.634 363.941 290.259C363.318 289.586 362.594 288.76 363.313 287.896C364.156 286.883 365.502 287.22 365.953 288.132C366.896 290.039 368.066 289.473 369.685 289.329C373.27 289.012 376.146 290.934 378.1 293.766C378.859 294.866 380.99 296.098 380.329 296.828C379.277 297.99 377.923 296.214 376.727 295.61C375.765 295.125 374.927 295.366 374.292 296.103C373.583 296.927 374.054 297.742 374.456 298.598C376.413 302.769 379.293 306.31 382.043 309.942C384.603 313.323 384.746 315.19 382.694 318.874C382.315 319.554 381.926 320.23 381.603 320.938C379.125 326.382 375.018 327.054 370.806 323.059C368.813 321.169 366.412 319.689 364.104 318.163C362.665 317.211 361.19 317.668 359.737 318.477C357.374 319.793 354.899 320.728 352.133 321.003C349.11 321.302 349.075 321.473 348.65 318.411C348.284 315.777 346.711 313.478 347.075 310.576C347.366 308.258 348.238 307.107 350.378 306.498C352.147 305.995 353.805 305.673 354.662 303.267C355.138 301.933 357.645 300.595 359.731 300.693C360.946 300.751 361.626 300.562 362.234 299.527C363.188 297.903 364.828 298.084 366.382 298.201C367.393 298.277 368.241 298.739 367.992 299.887C367.431 302.474 369.093 303.338 370.993 303.234C373.174 303.114 372.586 301 372.792 299.877ZM255.446 189.997C254.204 190.304 252.513 188.976 251.724 190.884C250.913 192.844 253.167 193.355 253.715 194.695C254.021 195.441 254.677 195.862 255.283 196.344C256.376 197.214 257.534 197.348 258.241 196.102C259.328 194.181 260.509 194.148 262.098 195.386C262.51 195.706 263.085 195.637 263.521 195.276C263.846 195.007 264.024 194.513 263.7 194.271C260.279 191.715 263.339 192.148 264.809 191.748C265.404 191.586 265.946 191.183 266.475 190.832C266.772 190.635 267.187 190.329 267.201 190.057C267.221 189.647 266.711 189.589 266.354 189.565C264.563 189.447 262.882 188.572 260.853 188.863C259.019 188.478 257.301 189.539 255.446 189.997ZM141.743 196.796C141.143 196.124 140.218 195.965 139.85 196.87C138.411 200.397 136.66 197.724 135.569 196.887C132.657 194.657 131.404 194.537 128.932 196.932C127.861 197.97 127.794 198.622 129.397 198.943C131.535 199.371 133.544 199.986 135.477 201.137C137.819 202.531 142.532 201.244 144.408 199.079C144.729 198.737 144.765 198.396 144.406 198.055C143.275 198.149 142.473 197.613 141.743 196.796ZM342.694 286.196C342.555 286.295 342.531 286.695 342.594 286.916C343.09 288.664 343.616 290.418 345.7 290.922C347.501 291.358 348.82 290.869 349.966 289.241C351.401 287.201 350.748 284.78 351.569 282.641C351.873 281.851 350.861 281.432 349.531 281.423C347.462 282.858 345.066 284.51 342.694 286.196ZM287.477 299.137C285.872 300.266 283.646 301.15 282.821 302.869C281.871 304.848 281.528 307.244 281.666 309.562C281.714 310.375 282.142 311.025 283.023 311.182C284.089 311.372 285.355 311.302 285.66 310.208C286.505 307.176 288.142 304.396 288.559 301.427C288.2 300.419 288.536 298.392 287.477 299.137ZM295.475 208.203C292.82 205.251 292.824 204.629 295.835 202.126C297.612 200.65 299.55 199.421 301.861 198.875C302.847 198.642 303.811 198.266 304.736 197.846C304.982 197.734 305.181 197.215 305.165 196.895C305.134 196.289 304.632 195.975 304.085 196.109C299.11 197.328 294.131 198.552 290.908 203.099C289.619 204.916 290.062 206.892 292.034 207.875C293.115 208.414 294.287 208.242 295.432 208.256L295.475 208.203ZM400.252 332.699C401.18 330.457 402.87 329.051 404.749 327.654C407.03 325.958 406.867 324.733 404.513 322.866C404.016 322.471 403.518 321.825 402.875 322.119C402.098 322.474 402.592 323.218 402.695 323.81C402.991 325.519 402.762 326.688 400.887 327.68C399.294 328.524 398.161 330.319 396.966 331.805C396.024 332.977 396.533 334.216 397.998 334.301C399.003 334.314 399.867 333.627 400.252 332.699ZM372.766 247.558C372.249 247.26 371.706 247.365 371.435 247.852C369.795 250.81 367.059 252.255 364.079 253.473C362.861 253.971 362.013 254.997 362.075 256.475C362.1 257.047 362.417 257.551 363.014 257.285C365.738 256.074 368.548 254.985 371.086 253.452C372.613 252.53 373.129 250.588 373.483 249.081C373.524 248.229 373.234 247.827 372.766 247.558ZM331.247 187.915C329.401 186.709 328.262 187.858 327.572 189.287C326.854 190.773 327.378 192.084 329.118 192.584C330.477 192.973 331.857 193.286 333.228 193.632C334.024 192.992 334.483 192.117 334.913 191.22C334.065 189.701 332.642 188.827 331.247 187.915ZM369.094 198.846C368.334 200.182 369.957 200.385 370.532 201.092C370.773 201.388 371.045 201.665 371.25 201.984C371.828 202.88 372.524 203.818 373.676 203.441C375.102 202.974 373.34 201.914 373.896 201.189C374.202 200.789 374.46 200.35 374.785 199.968C375.554 199.063 375.046 198.568 374.2 198.335C373.472 198.134 372.69 198.132 372.184 198.072C370.926 198.18 369.651 197.867 369.094 198.846ZM354.611 277.095C355.859 278.174 356.992 277.316 357.623 276.553C358.306 275.727 357.553 274.769 356.554 274.571C354.746 274.212 354.637 273.327 355.265 271.812C355.531 271.169 354.77 270.617 354.161 270.452C353.348 270.231 353.057 270.967 352.854 271.559C352.691 272.036 352.71 272.575 352.648 273.087C352.521 274.813 353.379 276.029 354.611 277.095ZM351.574 289.545C351.668 290.691 351.831 292.331 353.074 292.616C353.745 292.77 355.461 292.164 355.348 290.654C355.266 289.548 355.005 288.324 353.46 288.162C352.539 288.207 351.49 288.521 351.574 289.545Z" fill="white"/>
</g>
<defs>
<filter id="filter0_d_1096_24801" x="79.9688" y="86.4443" width="336.668" height="336.669" filterUnits="userSpaceOnUse" color-interpolation-filters="sRGB">
<feFlood flood-opacity="0" result="BackgroundImageFix"/>
<feColorMatrix in="SourceAlpha" type="matrix" values="0 0 0 0 0 0 0 0 0 0 0 0 0 0 0 0 0 0 127 0" result="hardAlpha"/>
<feOffset dy="4"/>
<feGaussianBlur stdDeviation="11"/>
<feComposite in2="hardAlpha" operator="out"/>
<feColorMatrix type="matrix" values="0 0 0 0 0 0 0 0 0 0 0 0 0 0 0 0 0 0 0.3 0"/>
<feBlend mode="normal" in2="BackgroundImageFix" result="effect1_dropShadow_1096_24801"/>
<feBlend mode="normal" in="SourceGraphic" in2="effect1_dropShadow_1096_24801" result="shape"/>
</filter>
<clipPath id="clip0_1096_24801">
<rect width="328.415" height="184.314" fill="white" transform="translate(86.3281 172.584)"/>
</clipPath>
</defs>
</svg>
