<svg width="220" height="220" viewBox="0 0 220 220" fill="none" xmlns="http://www.w3.org/2000/svg">
<g opacity="0.6" filter="url(#filter0_d_983_24818)">
<path d="M108.002 4C51.7588 4 6 49.7597 6 106C6 162.244 51.7588 208 108.002 208C164.245 208 210 162.24 210 106C210.002 49.7558 164.241 4 108.002 4V4ZM153.257 76.522C152.693 74.7325 152.882 72.0945 153.731 71.6226C154.579 71.1506 156.364 68.4203 156.364 68.4203C156.648 67.8053 158.438 68.6093 158.814 68.8891C159.191 69.172 159.379 72.4712 159.002 74.5403C158.625 76.6142 160.038 77.838 160.602 78.0255C161.171 78.2146 161.548 82.642 161.451 83.5846C161.359 84.5255 158.722 85.3741 157.99 85.4663C157.26 85.5617 154.389 85.6139 154.482 84.2426C154.579 82.8743 153.821 78.3116 153.257 76.522H153.257ZM108.38 196.701C85.2277 196.701 63.8922 187.978 47.8508 173.651L52.0123 167.597L55.0731 155.447L47.7029 150.645L39.2183 147.822L33.5609 134.26C33.5609 134.26 27.3391 129.171 22.8195 127.478C21.2269 126.88 20.2061 124.51 18.5487 120.957C17.737 116.091 17.3049 111.096 17.3049 106.003C17.3049 102.999 17.4571 100.032 17.7416 97.1019C18.0967 96.6915 18.3857 96.3563 18.5763 96.115C23.0959 90.4638 35.247 85.0952 35.247 85.0952C35.247 85.0952 39.2424 84.531 32.4398 73.2284C25.6404 61.9288 35.5268 55.1446 35.5268 55.1446L40.8953 51.1904C40.8953 51.1904 38.6339 63.0544 41.4611 64.753C44.2821 66.4472 47.1078 61.0787 47.6765 59.3844C48.2407 57.6902 54.1733 51.3042 56.4347 47.9156C58.6961 44.5241 56.7176 36.4975 53.3278 35.9335C52.6421 35.8182 52.1194 35.4492 51.7213 34.9311C67.1943 22.6508 86.7568 15.3053 108 15.3053C124.865 15.3053 140.662 19.9375 154.203 27.9871C142.798 27.5351 131.123 34.0244 128.907 33.5308C126.364 32.9682 113.979 35.0866 109.456 36.7824C104.934 38.4796 105.502 40.8317 104.372 41.1147C103.239 41.3945 102.638 42.3385 100.887 44.317C99.1348 46.294 101.641 48.5557 101.641 48.5557C101.641 48.5557 108.422 50.2529 109.553 45.2581C110.22 42.2894 109.267 47.8008 109.553 50.0607C109.836 52.3222 114.071 52.8864 116.33 50.0607C117.347 48.7893 117.189 45.5639 117.838 44.5048C118.636 43.2088 120.205 44.1958 121.137 44.0728C121.7 43.9974 120.603 45.0244 121.324 45.4502C122.768 46.3035 125.711 44.8338 124.996 48.2728C124.71 49.6565 120.288 49.9363 119.724 51.9779C119.155 54.0195 118.122 55.1233 118.122 55.1233L108.892 55.3386L105.877 50.9126C105.877 50.9126 102.823 52.2301 103.616 54.8667C104.16 56.6823 102.824 58.8208 102.824 58.8208C102.824 58.8208 97.9645 59.6694 97.9645 61.0823C97.9645 61.8587 96.0474 61.9663 94.9513 62.3998C94.052 62.7596 93.3909 64.2539 92.5023 64.3784C91.9719 64.4537 88.7144 64.755 87.9796 64.8473C85.9918 65.0979 86.9434 65.6237 86.9434 66.4492C86.9434 67.5792 90.6176 67.862 90.6176 67.862C90.6176 67.862 92.876 68.8029 92.0304 70.4986C91.1818 72.1958 92.6899 72.76 90.9943 72.76C90.2579 72.76 88.5499 72.657 86.8529 72.6647C84.6576 72.6801 82.5285 71.9898 82.4777 72.8938C82.2686 76.3821 82.4008 81.2401 82.4008 81.2401C82.4008 81.2401 85.3433 82.6529 86.9436 82.2732C89.1605 81.7505 92.3122 83.4985 93.8203 79.4475C93.9371 79.137 94.1416 78.4467 94.3829 78.13C95.4314 76.7541 96.4153 74.0944 98.1509 73.2337C99.2178 72.7033 100.757 73.1691 101.258 73.1383C102.386 73.0676 104.276 71.538 104.276 71.538C104.276 71.538 109.36 72.1975 110.676 77.1891C111.066 78.6589 110.676 81.1449 111.526 81.6152C112.041 81.9011 114.351 79.3568 114.351 79.3568L116.989 79.449L115.535 76.013L110.676 70.6908L111.341 70.3157C111.341 70.3157 115.198 70.411 115.484 71.2566C115.764 72.1052 120.176 74.1776 119.438 76.6252C118.213 80.6762 121.043 81.8061 121.043 81.8061C121.043 81.8061 123.586 82.275 124.714 80.1334C125.695 78.2747 125.847 76.6052 125.847 76.6052L129.03 76.1486C129.03 76.1486 128.857 69.1845 132.436 68.9967C136.015 68.8123 136.392 68.9967 136.392 68.9967C136.392 68.9967 144.114 71.6348 144.966 73.6121C145.81 75.5891 146.185 77.5969 143.643 77.8783C141.101 78.1581 137.334 77.6585 137.334 77.6585C137.334 77.6585 127.371 76.0888 128.22 78.9129C129.067 81.7386 129.895 84.5382 129.895 84.5382C129.895 84.5382 132.167 84.3767 134.134 84.8164C136.234 85.2884 138.852 85.0055 138.852 85.0055L139.316 89.9018L138.069 90.2631C136.646 90.669 132.441 90.8919 131.31 91.3162C130.18 91.739 117.89 89.622 117.608 90.0448C117.325 90.466 113.226 91.8789 110.968 91.3162C108.706 90.752 108.138 85.3836 108.138 85.3836C108.138 85.3836 107.858 82.8409 106.304 82.9792C104.748 83.1206 94.0097 84.1092 94.0097 84.1092C94.0097 84.1092 90.4768 85.665 90.4768 86.509C90.4768 86.509 89.4868 85.8033 88.0771 86.509C86.6643 87.2147 84.5443 87.0747 83.9786 88.2062C83.4144 89.3393 81.2959 91.4547 80.166 93.4332C79.0376 95.4087 75.7892 95.6916 74.9392 99.226C74.0906 102.757 73.3849 108.69 73.5264 111.233C73.6678 113.776 73.6678 119.905 76.209 121.29C78.7517 122.679 82.1446 126.205 83.4158 127.481C84.6857 128.751 91.6097 129.74 92.4586 129.175C93.3056 128.611 96.1297 127.481 97.6838 127.481C99.2396 127.481 102.629 127.624 103.616 128.468C104.603 129.317 105.735 131.294 106.585 133.414C107.429 135.532 108.279 139.062 108.985 140.336C109.692 141.608 112.519 144.008 111.527 146.412C110.54 148.815 108.702 151.215 108.985 154.041C109.268 156.863 111.095 160.684 111.735 161.953C112.379 163.223 116.473 167.179 116.33 168.453C116.192 169.723 117.322 169.301 118.873 169.868C120.427 170.431 127.07 168.593 128.057 167.462C129.047 166.332 130.461 162.944 132.295 161.105C134.131 159.266 138.088 156.161 140.067 154.041C142.042 151.921 144.021 150.085 144.162 147.401C144.299 144.714 142.748 138.643 144.162 137.653C145.576 136.662 147.552 135.25 148.969 133.414C150.382 131.578 153.346 131.578 155.465 125.646C157.585 119.713 158.287 118.016 157.864 117.732C157.446 117.449 154.195 118.865 153.626 119.71C153.062 120.559 149.53 120.606 148.823 121.291C148.118 121.972 145.152 121.291 145.152 121.291C145.152 121.291 146.28 116.034 145.575 114.198C144.868 112.364 141.335 105.157 140.204 102.614C139.275 100.53 139.124 98.0793 139.559 96.4786C139.741 96.7385 139.924 96.9983 140.064 97.2458C140.563 98.1498 143.347 101.303 144.491 104.598C146.935 111.662 149.67 116.741 149.67 116.741C149.67 116.741 153.345 116.938 159.465 112.223C163.631 109.021 168.043 108.781 168.79 107.139C170.203 104.029 164.359 101.201 164.359 101.201L159.271 101.391L155.291 94.554L156.445 94.1374C156.445 94.1374 160.688 99.2246 162.662 99.2246C164.638 99.2246 170.008 98.6588 171.703 100.637C173.398 102.614 178.484 106.004 179.333 109.396C180.183 112.786 179.77 117.61 181.31 119.286C183.479 121.644 185.549 121.267 185.549 121.267L188.092 115.33L194.215 108.367L199.45 105.809V106.001C199.45 156.02 158.39 196.702 108.377 196.702L108.38 196.701Z" fill="white"/>
<path d="M86.3893 52.0312C86.3893 52.0312 87.7069 52.7845 88.0835 53.1611C88.4601 53.5362 91.7577 54.3849 93.1706 53.63C94.5834 52.8782 95.3367 50.8043 96.3729 50.709C97.409 50.6168 96.748 50.709 96.5604 49.9557C96.3729 49.2039 97.5966 46.4336 97.5966 46.4336L94.7709 44.0246C94.7709 44.0246 92.9815 40.4456 93.1706 39.3172C93.3551 38.1841 91.8177 36.1056 91.9054 35.9673C91.9946 35.8304 87.0536 36.0195 87.0536 38.9374V43.0805C87.0536 43.0805 86.2496 44.7777 85.7792 45.2466C85.3057 45.7155 85.7546 47.6957 86.0374 48.5412C86.3188 49.3929 86.3895 52.031 86.3895 52.031L86.3893 52.0312Z" fill="white"/>
<path d="M85.3518 50.6128C85.5794 50.1562 84.8937 47.5688 84.6139 46.5725C84.5478 46.3326 84.5032 46.1851 84.5032 46.1851L84.0359 44.3956C83.7515 43.8313 82.9059 45.2426 82.3694 45.5255C81.8344 45.8084 81.8698 46.7493 81.5854 47.501C81.3025 48.2543 80.6445 51.0831 80.6445 51.0831L82.3725 51.5504C82.3679 51.5535 85.0705 51.1799 85.3518 50.6126L85.3518 50.6128Z" fill="white"/>
<path d="M151.658 145.559C151.658 145.559 151.375 149.798 149.397 151.069C147.421 152.341 146.01 154.601 146.01 155.872C146.01 157.143 145.587 158.556 146.01 159.828C146.433 161.099 147.514 161.948 148.739 161.805C149.967 161.666 151.377 159.122 151.66 157.992C151.943 156.862 152.793 154.479 153.635 153.69C154.484 152.906 154.768 150.646 154.625 149.514C154.484 148.384 155.472 144.285 151.658 145.559L151.658 145.559Z" fill="white"/>
</g>
<defs>
<filter id="filter0_d_983_24818" x="0" y="0" width="220" height="220" filterUnits="userSpaceOnUse" color-interpolation-filters="sRGB">
<feFlood flood-opacity="0" result="BackgroundImageFix"/>
<feColorMatrix in="SourceAlpha" type="matrix" values="0 0 0 0 0 0 0 0 0 0 0 0 0 0 0 0 0 0 127 0" result="hardAlpha"/>
<feOffset dx="2" dy="4"/>
<feGaussianBlur stdDeviation="4"/>
<feComposite in2="hardAlpha" operator="out"/>
<feColorMatrix type="matrix" values="0 0 0 0 0 0 0 0 0 0 0 0 0 0 0 0 0 0 0.25 0"/>
<feBlend mode="normal" in2="BackgroundImageFix" result="effect1_dropShadow_983_24818"/>
<feBlend mode="normal" in="SourceGraphic" in2="effect1_dropShadow_983_24818" result="shape"/>
</filter>
</defs>
</svg>
