<svg width="32" height="32" viewBox="0 0 32 32" fill="none" xmlns="http://www.w3.org/2000/svg">
<path d="M18.5654 15.7327L14.9718 14.0559C14.6582 13.9103 14.4006 14.0735 14.4006 14.4207V17.5791C14.4006 17.9263 14.6582 18.0895 14.9718 17.9439L18.5638 16.2671C18.879 16.1199 18.879 15.8799 18.5654 15.7327ZM16.0006 0.639893C7.51743 0.639893 0.640625 7.51669 0.640625 15.9999C0.640625 24.4831 7.51743 31.3599 16.0006 31.3599C24.4838 31.3599 31.3606 24.4831 31.3606 15.9999C31.3606 7.51669 24.4838 0.639893 16.0006 0.639893ZM16.0006 22.2399C8.13823 22.2399 8.00062 21.5311 8.00062 15.9999C8.00062 10.4687 8.13823 9.75989 16.0006 9.75989C23.863 9.75989 24.0006 10.4687 24.0006 15.9999C24.0006 21.5311 23.863 22.2399 16.0006 22.2399Z" fill="#041925"/>
</svg>
